<?xml version="1.0" encoding="UTF-8"?> <svg xmlns="http://www.w3.org/2000/svg" width="1680" height="1120" viewBox="0 0 1680 1120" fill="none"> <rect width="1680" height="1120" fill="#636597"></rect> <path d="M920.853 607.346C921.33 657.687 910.358 696.178 887.936 722.819C865.513 749.461 834.818 762.957 795.85 763.308C756.676 763.688 725.538 750.786 702.433 724.603C679.329 698.419 667.528 660.162 667.031 609.831L666.184 521.311C665.696 471.166 676.669 432.675 699.101 405.838C721.533 379.002 752.33 365.418 791.494 365.087C830.472 364.707 861.523 377.701 884.647 404.07C907.771 430.439 919.566 468.691 920.034 518.827L920.853 607.346ZM855.325 509.53C855.004 477.831 849.484 454.425 838.765 439.311C828.046 424.197 812.454 416.733 791.991 416.918C771.595 417.113 756.204 424.874 745.816 440.203C735.428 455.531 730.356 479.04 730.6 510.729L731.623 618.294C731.925 650.159 737.514 673.697 748.389 688.908C759.264 704.119 774.889 711.628 795.265 711.433C815.641 711.238 830.984 703.476 841.293 688.148C851.603 672.82 856.607 649.136 856.305 617.096L855.325 509.53Z" fill="#F3F3FF"></path> <path fill-rule="evenodd" clip-rule="evenodd" d="M918.853 607.365L918.034 518.845C917.569 468.986 905.839 431.27 883.143 405.388C860.449 379.51 829.982 366.712 791.513 367.087L791.511 367.087C752.855 367.414 722.643 380.792 700.635 407.121C678.617 433.463 667.699 471.419 668.183 521.292L669.031 609.811C669.031 609.812 669.031 609.811 669.031 609.811C669.526 659.87 681.262 697.586 703.933 723.279C726.604 748.972 757.158 761.683 795.83 761.308H795.832C834.294 760.962 864.407 747.67 886.405 721.531C908.408 695.388 919.328 657.436 918.853 607.365ZM667.031 609.831L666.184 521.311C665.696 471.166 676.669 432.675 699.101 405.838C721.533 379.002 752.33 365.418 791.494 365.087C830.472 364.707 861.523 377.701 884.647 404.07C907.771 430.439 919.566 468.691 920.034 518.827L920.853 607.346C921.33 657.687 910.358 696.178 887.936 722.819C865.513 749.461 834.818 762.957 795.85 763.308C756.676 763.688 725.538 750.786 702.433 724.603C679.329 698.419 667.528 660.162 667.031 609.831ZM857.325 509.51L857.325 509.512L858.305 617.077C858.305 617.077 858.305 617.077 858.305 617.077C858.608 649.258 853.6 673.434 842.953 689.264C832.233 705.202 816.239 713.232 795.284 713.433C774.324 713.633 758.054 705.867 746.762 690.071C735.532 674.364 729.927 650.33 729.623 618.313L728.6 510.744C728.355 478.907 733.435 454.908 744.16 439.081C754.958 423.147 770.998 415.119 791.972 414.918L791.973 414.918C813.011 414.728 829.254 422.444 840.396 438.154C851.466 453.762 857.002 477.662 857.325 509.51ZM856.305 617.096C856.607 649.136 851.603 672.82 841.293 688.148C830.984 703.476 815.641 711.238 795.265 711.433C774.889 711.628 759.264 704.119 748.389 688.908C737.514 673.697 731.925 650.159 731.623 618.294L730.6 510.729C730.356 479.04 735.428 455.531 745.816 440.203C756.204 424.874 771.595 417.113 791.991 416.918C812.454 416.733 828.046 424.197 838.765 439.311C849.484 454.425 855.004 477.831 855.325 509.53L856.305 617.096Z" fill="#333333"></path> <g opacity="0.4"> <path opacity="0.4" d="M920.853 607.346C921.33 657.687 910.358 696.178 887.936 722.819C865.513 749.461 834.818 762.957 795.85 763.308C756.676 763.688 725.538 750.786 702.433 724.603C679.329 698.419 667.528 660.162 667.031 609.831L666.184 521.311C665.696 471.166 676.669 432.675 699.101 405.838C721.533 379.002 752.33 365.418 791.494 365.087C830.472 364.707 861.523 377.701 884.647 404.07C907.771 430.439 919.566 468.691 920.034 518.827L920.853 607.346ZM855.325 509.53C855.004 477.831 849.484 454.425 838.765 439.311C828.046 424.197 812.454 416.733 791.991 416.918C771.595 417.113 756.204 424.874 745.816 440.203C735.428 455.531 730.356 479.04 730.6 510.729L731.623 618.294C731.925 650.159 737.514 673.697 748.389 688.908C759.264 704.119 774.889 711.628 795.265 711.433C815.641 711.238 830.984 703.476 841.293 688.148C851.603 672.82 856.607 649.136 856.305 617.096L855.325 509.53Z" fill="#333333"></path> <path opacity="0.4" fill-rule="evenodd" clip-rule="evenodd" d="M918.853 607.365L918.034 518.845C917.569 468.986 905.839 431.27 883.143 405.388C860.449 379.51 829.982 366.712 791.513 367.087L791.511 367.087C752.855 367.414 722.643 380.792 700.635 407.121C678.617 433.463 667.699 471.419 668.183 521.292L669.031 609.811C669.031 609.812 669.031 609.811 669.031 609.811C669.526 659.87 681.262 697.586 703.933 723.279C726.604 748.972 757.158 761.683 795.83 761.308H795.832C834.294 760.962 864.407 747.67 886.405 721.531C908.408 695.388 919.328 657.436 918.853 607.365ZM667.031 609.831L666.184 521.311C665.696 471.166 676.669 432.675 699.101 405.838C721.533 379.002 752.33 365.418 791.494 365.087C830.472 364.707 861.523 377.701 884.647 404.07C907.771 430.439 919.566 468.691 920.034 518.827L920.853 607.346C921.33 657.687 910.358 696.178 887.936 722.819C865.513 749.461 834.818 762.957 795.85 763.308C756.676 763.688 725.538 750.786 702.433 724.603C679.329 698.419 667.528 660.162 667.031 609.831ZM857.325 509.51L857.325 509.512L858.305 617.077C858.305 617.077 858.305 617.077 858.305 617.077C858.608 649.258 853.6 673.434 842.953 689.264C832.233 705.202 816.239 713.232 795.284 713.433C774.324 713.633 758.054 705.867 746.762 690.071C735.532 674.364 729.927 650.33 729.623 618.313L728.6 510.744C728.355 478.907 733.435 454.908 744.16 439.081C754.958 423.147 770.998 415.119 791.972 414.918L791.973 414.918C813.011 414.728 829.254 422.444 840.396 438.154C851.466 453.762 857.002 477.662 857.325 509.51ZM856.305 617.096C856.607 649.136 851.603 672.82 841.293 688.148C830.984 703.476 815.641 711.238 795.265 711.433C774.889 711.628 759.264 704.119 748.389 688.908C737.514 673.697 731.925 650.159 731.623 618.294L730.6 510.729C730.356 479.04 735.428 455.531 745.816 440.203C756.204 424.874 771.595 417.113 791.991 416.918C812.454 416.733 828.046 424.197 838.765 439.311C849.484 454.425 855.004 477.831 855.325 509.53L856.305 617.096Z" fill="#333333"></path> </g> <path d="M958.067 606.996C958.554 657.326 947.582 695.817 925.15 722.469C902.718 749.12 872.022 762.616 833.063 762.957C793.89 763.337 762.752 750.431 739.647 724.237C716.543 698.044 704.757 659.777 704.289 609.437L703.441 520.917C702.954 470.772 713.926 432.281 736.358 405.444C758.79 378.608 789.588 365.019 828.751 364.678C867.73 364.317 898.781 377.312 921.905 403.661C945.028 430.01 956.78 468.282 957.16 518.476L958.067 606.996ZM892.539 509.18C892.228 477.49 886.683 454.104 875.905 439.019C865.128 423.934 849.537 416.47 829.132 416.626C808.736 416.831 793.345 424.592 782.957 439.911C772.569 455.229 767.522 478.743 767.814 510.451L768.852 618.002C769.164 649.877 774.752 673.419 785.617 688.631C796.482 703.842 812.108 711.35 832.493 711.155C852.869 710.951 868.212 703.189 878.522 687.871C888.832 672.552 893.831 648.863 893.519 616.804L892.539 509.18Z" fill="#F3F3FF"></path> <path fill-rule="evenodd" clip-rule="evenodd" d="M704.289 609.437C704.757 659.777 716.543 698.044 739.647 724.237C762.752 750.431 793.89 763.337 833.063 762.957C872.022 762.616 902.718 749.12 925.15 722.469C947.582 695.817 958.554 657.326 958.067 606.996L957.16 518.476C956.78 468.282 945.028 430.01 921.905 403.661C898.781 377.312 867.73 364.317 828.751 364.678C789.588 365.019 758.79 378.608 736.358 405.444C713.926 432.281 702.954 470.772 703.441 520.917L704.289 609.437ZM956.067 607.015L955.161 518.497L955.161 518.491C954.783 468.573 943.096 430.84 920.401 404.98C897.707 379.12 867.239 366.322 828.77 366.678L828.769 366.678C790.113 367.014 759.901 380.397 737.893 406.727C715.875 433.068 704.957 471.025 705.441 520.898L706.289 609.418C706.754 659.486 718.476 697.212 741.147 722.914C763.818 748.616 794.373 761.333 833.044 760.957H833.046C871.498 760.621 901.611 747.329 923.619 721.181C945.632 695.028 956.551 657.077 956.067 607.016C956.067 607.016 956.067 607.015 956.067 607.015ZM894.539 509.16L894.539 509.162L895.519 616.784L895.519 616.785L893.519 616.804M895.519 616.785C895.832 648.985 890.829 673.167 880.181 688.987C869.461 704.915 853.468 712.945 832.513 713.155C811.545 713.356 795.273 705.59 783.99 689.793C772.77 674.086 767.165 650.048 766.852 618.022L765.814 510.471C765.52 478.614 770.574 454.607 781.302 438.788C792.099 422.865 808.138 414.836 829.111 414.626L829.116 414.626C850.096 414.466 866.334 422.182 877.533 437.856C888.665 453.437 894.226 477.321 894.539 509.16M892.539 509.18C892.228 477.49 886.683 454.104 875.905 439.019C865.128 423.934 849.537 416.47 829.132 416.626C808.736 416.831 793.345 424.592 782.957 439.911C772.569 455.229 767.522 478.743 767.814 510.451L768.852 618.002" fill="#333333"></path> <path d="M952.688 470.299C952.472 470.22 952.266 470.117 952.074 469.992L950.378 469.013C949.499 468.477 948.591 467.989 947.659 467.551C946.458 466.907 945.224 466.326 943.961 465.812L941.769 464.891C940.994 464.584 940.176 464.35 939.328 464.058C937.662 463.444 935.805 463.02 933.861 462.508C925.363 460.575 916.548 460.5 908.019 462.289C906.163 462.682 904.328 463.17 902.523 463.751C901.675 464.028 900.842 464.248 900.067 464.54L897.86 465.417C896.59 465.914 895.346 466.475 894.133 467.098C893.191 467.526 892.278 468.014 891.399 468.56L889.674 469.51C889.28 469.714 889.061 469.817 889.046 469.787C889.212 469.627 889.399 469.49 889.601 469.378L891.238 468.296C892.104 467.72 893.008 467.203 893.943 466.747C895.143 466.073 896.383 465.473 897.655 464.949L899.862 464.014C900.637 463.707 901.485 463.473 902.333 463.181C904.15 462.568 905.999 462.055 907.872 461.646C916.495 459.754 925.434 459.834 934.022 461.88C935.981 462.406 937.852 462.859 939.532 463.502C940.38 463.809 941.213 464.058 941.973 464.394L944.181 465.358C945.439 465.915 946.668 466.535 947.864 467.215C948.785 467.692 949.673 468.229 950.524 468.823L952.161 469.934C952.527 470.124 952.775 470.27 952.688 470.299Z" fill="white"></path> <path d="M569.902 625.69L618.766 627.824L616.5 679.612L567.636 677.478L563.88 763.527L499.565 760.72L503.322 674.671L337.406 667.421L337.538 627.956L514.402 373.915L580.791 376.838L569.902 625.69ZM401.808 618.382L505.588 622.913L512.428 465.957L510.864 465.358L505.018 476.54L401.808 618.382Z" fill="#F3F3FF"></path> <path fill-rule="evenodd" clip-rule="evenodd" d="M567.816 627.601L578.705 378.749L515.413 375.962L339.535 628.586L339.412 665.507L505.407 672.76L501.65 758.81L561.968 761.442L565.725 675.392L614.589 677.526L616.68 629.735L567.816 627.601ZM618.765 627.824L616.5 679.612L567.636 677.478L563.879 763.527L499.565 760.72L503.322 674.671L337.406 667.421L337.537 627.956L514.401 373.915L580.791 376.838L569.901 625.69L618.765 627.824ZM397.999 620.217L503.313 475.482L509.917 462.853L514.489 464.605L507.498 624.998L397.999 620.217ZM505.017 476.54L401.808 618.382L505.587 622.913L512.428 465.957L510.864 465.358L505.017 476.54Z" fill="#333333"></path> <g opacity="0.4"> <path opacity="0.4" d="M569.902 625.69L618.766 627.824L616.5 679.612L567.636 677.478L563.88 763.527L499.565 760.72L503.322 674.671L337.406 667.421L337.538 627.956L514.402 373.915L580.791 376.838L569.902 625.69ZM401.808 618.382L505.588 622.913L512.428 465.957L510.864 465.358L505.018 476.54L401.808 618.382Z" fill="#333333"></path> <path opacity="0.4" fill-rule="evenodd" clip-rule="evenodd" d="M567.816 627.601L578.706 378.749L515.414 375.962L339.536 628.586L339.413 665.507L505.407 672.76L501.651 758.81L561.969 761.442L565.725 675.392L614.59 677.526L616.68 629.735L567.816 627.601ZM618.766 627.824L616.5 679.612L567.636 677.478L563.88 763.527L499.565 760.72L503.322 674.671L337.406 667.421L337.538 627.956L514.402 373.915L580.791 376.838L569.902 625.69L618.766 627.824ZM397.999 620.217L503.314 475.482L509.917 462.853L514.489 464.605L507.499 624.998L397.999 620.217ZM505.018 476.54L401.808 618.382L505.588 622.913L512.428 465.957L510.864 465.358L505.018 476.54Z" fill="#333333"></path> </g> <path d="M610.741 627.474L659.605 629.608L657.34 681.395L608.476 679.261L604.719 765.311L540.405 762.504L544.162 676.455L378.173 669.147L378.304 629.681L555.197 375.743L621.602 378.666L610.741 627.474ZM442.648 620.165L546.5 624.697L553.341 467.741L551.777 467.142L545.93 478.324L442.648 620.165Z" fill="#F3F3FF"></path> <path fill-rule="evenodd" clip-rule="evenodd" d="M608.656 629.385L619.516 380.576L556.209 377.789L380.302 630.312L380.179 667.233L546.247 674.545L542.49 760.593L602.808 763.225L606.565 677.176L655.429 679.31L657.52 631.519L608.656 629.385ZM659.605 629.608L657.34 681.395L608.475 679.261L604.719 765.311L540.405 762.504L544.161 676.455L378.173 669.147L378.304 629.681L555.197 375.743L621.601 378.666L610.741 627.474L659.605 629.608ZM438.837 622.001L544.226 477.266L550.829 464.637L555.402 466.389L548.411 626.782L438.837 622.001ZM545.93 478.324L442.647 620.165L546.5 624.697L553.341 467.741L551.777 467.142L545.93 478.324Z" fill="#333333"></path> <path d="M1204.65 626.289L1253.33 621.539L1258.37 673.122L1209.7 677.887L1218.07 763.6L1154.05 769.871L1145.72 684.157L980.313 700.324L974.891 661.253L1114.26 384.863L1180.4 378.388L1204.65 626.289ZM1037.17 642.675L1140.62 632.56L1125.33 476.16L1123.69 475.794L1119.51 487.692L1037.17 642.675Z" fill="#F3F3FF"></path> <path fill-rule="evenodd" clip-rule="evenodd" d="M1202.86 628.474L1178.61 380.573L1115.55 386.746L976.957 661.596L982.03 698.146L1147.51 681.972L1155.85 767.685L1215.89 761.804L1207.51 676.091L1256.18 671.326L1251.53 623.724L1202.86 628.474ZM1253.33 621.539L1258.37 673.122L1209.7 677.887L1218.07 763.6L1154.05 769.871L1145.72 684.157L980.314 700.324L974.891 661.253L1114.26 384.863L1180.4 378.388L1204.65 626.289L1253.33 621.539ZM1033.66 645.028L1117.67 486.887L1122.39 473.455L1127.18 474.523L1142.8 634.356L1033.66 645.028ZM1119.51 487.692L1037.17 642.675L1140.62 632.56L1125.33 476.16L1123.69 475.794L1119.51 487.692Z" fill="#333333"></path> <g opacity="0.4"> <path opacity="0.4" d="M1204.65 626.289L1253.33 621.539L1258.37 673.122L1209.7 677.887L1218.07 763.6L1154.05 769.871L1145.72 684.157L980.313 700.324L974.891 661.253L1114.26 384.863L1180.4 378.388L1204.65 626.289ZM1037.17 642.675L1140.62 632.56L1125.33 476.16L1123.69 475.794L1119.51 487.692L1037.17 642.675Z" fill="#333333"></path> <path opacity="0.4" fill-rule="evenodd" clip-rule="evenodd" d="M1202.86 628.474L1178.61 380.573L1115.55 386.746L976.957 661.596L982.03 698.146L1147.51 681.972L1155.85 767.685L1215.89 761.804L1207.51 676.091L1256.18 671.326L1251.53 623.724L1202.86 628.474ZM1253.33 621.539L1258.37 673.122L1209.7 677.887L1218.07 763.6L1154.05 769.871L1145.72 684.157L980.314 700.324L974.891 661.253L1114.26 384.863L1180.4 378.388L1204.65 626.289L1253.33 621.539ZM1033.66 645.028L1117.67 486.887L1122.39 473.455L1127.18 474.523L1142.8 634.356L1033.66 645.028ZM1119.51 487.692L1037.17 642.675L1140.62 632.56L1125.33 476.16L1123.69 475.794L1119.51 487.692Z" fill="#333333"></path> </g> <path d="M1245.36 622.314L1294.03 617.549L1299.09 669.146L1250.4 673.926L1258.79 759.654L1194.76 765.91L1186.38 680.196L1021.02 696.333L1015.63 657.277L1155 380.887L1221.14 374.412L1245.36 622.314ZM1077.89 638.685L1181.34 628.614L1166.05 472.213L1164.4 471.833L1160.23 483.731L1077.89 638.685Z" fill="#F3F3FF"></path> <path fill-rule="evenodd" clip-rule="evenodd" d="M1243.56 624.499L1219.34 376.598L1156.29 382.771L1017.69 657.621L1022.74 694.156L1188.18 678.012L1196.55 763.725L1256.61 757.857L1248.22 672.131L1296.91 667.351L1292.24 619.734L1243.56 624.499ZM1294.03 617.549L1299.09 669.146L1250.4 673.926L1258.79 759.654L1194.76 765.91L1186.38 680.196L1021.02 696.333L1015.63 657.277L1155 380.887L1221.14 374.412L1245.36 622.314L1294.03 617.549ZM1074.38 641.036L1158.39 482.927L1163.1 469.483L1167.9 470.587L1183.52 630.41L1074.38 641.036ZM1160.23 483.731L1077.89 638.685L1181.34 628.614L1166.05 472.213L1164.4 471.833L1160.23 483.731Z" fill="#333333"></path> <path d="M1133.92 535.066C1148.76 522.335 1153.78 499.43 1145.61 481.671L1124.71 479.522C1129.97 476.624 1134.23 472.203 1136.94 466.841C1139.64 461.478 1140.67 455.423 1139.87 449.47C1134.09 455.455 1126.58 459.482 1118.39 460.989C1110.21 462.496 1101.76 461.407 1094.22 457.875C1084.46 453.051 1076.53 444.062 1065.81 442.176C1056.07 440.466 1046.5 445.1 1037.17 448.344C1027.85 451.589 1016.56 453.475 1008.84 447.292C1002.73 442.395 1000.83 433.815 1001.23 425.981C1001.62 418.146 1003.89 410.516 1004.37 402.696C1004.72 395.002 1003.39 387.324 1000.46 380.199C997.534 373.075 993.087 366.675 987.431 361.447C985.539 355.222 982.162 349.549 977.591 344.919C973.02 340.288 967.392 336.838 961.191 334.866C954.99 332.894 948.403 332.459 941.997 333.599C935.591 334.738 929.558 337.418 924.417 341.408C919.842 344.945 915.984 349.52 910.795 352.078C904.948 355.001 898.122 355.001 891.793 356.463C885.464 357.925 878.784 362.222 878.111 368.727L875.553 382.042C875.129 382.993 874.676 383.928 874.092 384.849C868.713 394.291 857.692 400.504 855.28 411.159C853.935 417.108 855.601 423.554 853.599 429.313C850.953 436.899 842.768 441.168 838.982 448.228C833.749 457.933 837.301 474.932 845.677 482.095C854.052 489.257 871.314 496.858 882.102 499.153C885.025 487.941 887.612 475.956 890.112 463.692C894.497 467.916 899.13 471.936 903.72 475.926C915.72 486.363 927.984 496.96 936.316 510.51C952.146 536.279 952.394 570.439 972.346 593.154C976.249 597.612 980.999 601.573 986.671 603.298C992.342 605.022 999.066 604.102 1003.26 599.921C1008.22 594.981 1008.86 586.649 1014.34 582.308C1021.65 576.534 1032.26 581.138 1040.08 586.152C1045.75 589.777 1051.42 593.607 1057.84 595.595C1064.26 597.582 1071.74 597.451 1077.21 593.534C1082.67 589.616 1085.07 581.255 1081.12 575.803C1079.55 573.625 1077.19 572.105 1075.63 569.957C1074.06 567.808 1073.61 564.3 1075.76 562.648C1077.91 560.996 1081.43 562.648 1083.99 564.11C1090.26 567.798 1097.28 570.042 1104.53 570.679C1111.79 571.316 1119.09 570.33 1125.91 567.792C1132.73 565.254 1138.9 561.229 1143.97 556.008C1149.05 550.787 1152.89 544.502 1155.23 537.61C1148.03 538.688 1140.67 537.809 1133.92 535.066Z" fill="#333333"></path> <path d="M979.83 535.866C979.83 535.866 896.986 575.374 863.512 571.051C838.827 567.851 842.76 526.158 842.76 526.158C842.76 526.158 882.07 520.103 891.402 512.191C912.377 494.112 886.725 451.855 886.725 451.855L954.619 461.301C951.015 471.166 948.003 481.2 945.597 491.357C944.118 497.28 943.238 503.309 942.969 509.367C942.783 512.403 943.263 515.435 944.379 518.281C948.954 527.913 979.83 535.866 979.83 535.866Z" fill="#FFD6CB"></path> <path fill-rule="evenodd" clip-rule="evenodd" d="M885.913 451.32C886.119 451.006 886.488 450.839 886.86 450.891L954.753 460.337C955.044 460.377 955.302 460.547 955.453 460.799C955.605 461.051 955.634 461.358 955.533 461.634C951.943 471.464 948.942 481.461 946.544 491.581L946.541 491.592C945.078 497.452 944.208 503.417 943.941 509.41L943.941 509.426C943.765 512.308 944.217 515.187 945.273 517.893C946.293 520.01 948.847 522.178 952.346 524.255C955.817 526.315 960.049 528.19 964.17 529.777C968.287 531.362 972.265 532.649 975.216 533.541C976.691 533.987 977.908 534.333 978.755 534.567C979.178 534.685 979.509 534.774 979.734 534.834C979.846 534.864 979.931 534.886 979.989 534.901L980.053 534.918L980.073 534.923C980.074 534.924 980.074 534.924 979.831 535.866C980.25 536.744 980.249 536.744 980.249 536.745L980.246 536.746L980.188 536.773C980.148 536.793 980.088 536.821 980.008 536.859C979.849 536.934 979.614 537.045 979.305 537.19C978.688 537.479 977.78 537.902 976.612 538.439C974.277 539.513 970.905 541.042 966.754 542.863C958.454 546.504 947.035 551.314 934.566 555.99C922.1 560.666 908.568 565.213 896.044 568.321C883.548 571.422 871.946 573.121 863.388 572.015C850.36 570.326 845.038 558.472 842.924 547.589C841.857 542.098 841.575 536.722 841.558 532.726C841.55 530.726 841.607 529.066 841.667 527.905C841.698 527.324 841.728 526.867 841.751 526.554C841.763 526.398 841.773 526.277 841.78 526.195C841.783 526.154 841.786 526.122 841.788 526.101L841.79 526.076L841.791 526.067C841.791 526.066 841.791 526.066 842.76 526.157C842.612 525.196 842.612 525.196 842.612 525.196L842.613 525.195L842.618 525.195L842.722 525.178C842.796 525.167 842.906 525.149 843.051 525.126C843.339 525.08 843.764 525.012 844.308 524.922C845.398 524.741 846.965 524.475 848.875 524.13C852.697 523.44 857.887 522.439 863.366 521.192C868.848 519.944 874.601 518.454 879.555 516.788C884.546 515.11 888.591 513.296 890.77 511.451C895.772 507.138 898.022 501.372 898.551 495.055C899.081 488.718 897.874 481.871 895.996 475.519C894.121 469.175 891.594 463.381 889.532 459.167C888.502 457.062 887.589 455.356 886.936 454.178C886.609 453.588 886.347 453.132 886.168 452.823C886.078 452.669 886.009 452.552 885.962 452.474C885.939 452.435 885.922 452.406 885.91 452.387L885.897 452.365L885.894 452.36C885.894 452.36 885.894 452.36 885.897 452.358L885.894 452.36C885.699 452.038 885.706 451.634 885.913 451.32ZM842.76 526.157L842.612 525.196C842.172 525.263 841.833 525.622 841.791 526.066L842.76 526.157ZM843.671 526.998C843.653 527.268 843.632 527.606 843.611 528.005C843.553 529.136 843.496 530.759 843.504 532.718C843.521 536.639 843.799 541.886 844.835 547.218C846.925 557.982 851.98 568.574 863.637 570.085C871.816 571.141 883.123 569.523 895.575 566.432C907.998 563.349 921.453 558.83 933.883 554.168C946.309 549.508 957.694 544.712 965.972 541.08C970.111 539.265 973.473 537.741 975.799 536.671C976.248 536.464 976.659 536.275 977.029 536.103C976.346 535.908 975.546 535.674 974.653 535.404C971.672 534.503 967.646 533.201 963.471 531.593C959.302 529.988 954.957 528.068 951.352 525.928C947.791 523.815 944.778 521.387 943.501 518.698C943.491 518.678 943.482 518.657 943.474 518.636C942.307 515.661 941.805 512.491 941.998 509.315C942.27 503.196 943.159 497.107 944.651 491.126C946.975 481.323 949.86 471.633 953.294 462.099L888.559 453.092C888.585 453.138 888.611 453.186 888.638 453.234C889.305 454.437 890.233 456.173 891.28 458.312C893.372 462.587 895.947 468.486 897.863 474.967C899.776 481.439 901.049 488.546 900.49 495.217C899.93 501.906 897.521 508.201 892.038 512.928L892.032 512.933C889.544 515.042 885.177 516.951 880.175 518.633C875.134 520.328 869.31 521.835 863.798 523.09C858.282 524.345 853.062 525.352 849.221 526.045C847.3 526.392 845.723 526.66 844.626 526.842C844.25 526.904 843.929 526.956 843.671 526.998ZM979.831 535.866L980.25 536.744C980.619 536.568 980.839 536.18 980.799 535.772C980.76 535.365 980.47 535.026 980.073 534.923L979.831 535.866Z" fill="#333333"></path> <path d="M958.55 521.566L948.85 519.958L888.752 499.489L853.61 488.772C848.673 486.893 843.42 486.118 838.184 486.495C832.948 486.873 827.843 488.395 823.194 490.965C806.566 499.884 760.754 544.886 760.754 544.886L793.748 580.779L768.5 660C785.891 712.166 829.652 711.56 829.652 711.56C846.293 712.309 862.901 709.412 878.429 703.05C910.037 690.374 943.197 660.534 947.354 647.712C949.848 640.021 951.913 623.851 953.548 605.59L1003.6 584.069L1017.17 510.966L958.55 521.566Z" fill="#CA5D4B"></path> <path d="M918.227 664.527C914.461 663.806 910.584 664.347 907.102 666.077C901.159 663.152 893.827 668.168 893.827 668.168C891.677 667.042 878.722 676.314 878.722 676.314L862.589 684.65L776.408 614.525L800.835 586.738L766.605 547.734L726.539 592.925C721.631 598.741 718.788 606.29 718.526 614.203C718.141 622.628 720.013 630.992 723.911 638.267C727.81 645.543 733.565 651.411 740.469 655.152L841.969 712.188C849.765 711.713 857.5 710.396 865.06 708.254C873.821 705.754 888.792 698.471 888.792 698.471C888.792 698.471 888.792 698.968 891.463 704.657C896.285 714.894 903.35 703.838 903.35 703.838C904.052 705.636 904.978 707.319 906.101 708.839C912.204 715.318 916.438 706.616 916.438 706.616C916.438 706.616 918.267 710.112 923.716 707.509C929.165 704.905 922.928 686.946 922.928 686.946C922.928 686.946 924.758 690.851 928.271 685.908C931.783 680.965 924.064 665.872 918.227 664.527Z" fill="#FFD6CB"></path> <path fill-rule="evenodd" clip-rule="evenodd" d="M923.782 687.993C924.644 688.652 926.151 688.891 928.271 685.908C931.783 680.965 924.064 665.872 918.227 664.527C914.461 663.806 910.584 664.347 907.102 666.077C901.159 663.152 893.827 668.168 893.827 668.168C891.677 667.042 878.722 676.314 878.722 676.314L862.589 684.65L776.408 614.525L800.835 586.738L766.605 547.734L726.539 592.925C721.631 598.741 718.788 606.29 718.526 614.203C718.141 622.628 720.013 630.992 723.911 638.267C727.81 645.543 733.565 651.411 740.469 655.152L841.969 712.188C849.765 711.713 857.5 710.396 865.06 708.254C872.922 706.01 885.784 699.915 888.342 698.688C888.635 698.547 888.792 698.471 888.792 698.471C888.792 698.471 888.792 698.542 888.938 698.941C889.176 699.594 889.805 701.124 891.463 704.657C895.664 713.575 901.567 706.333 903.018 704.319C903.232 704.021 903.35 703.838 903.35 703.838C903.421 704.02 903.494 704.201 903.57 704.381C904.242 705.975 905.091 707.473 906.101 708.839C911.308 714.367 915.155 708.844 916.172 707.103C916.347 706.804 916.438 706.616 916.438 706.616C916.438 706.616 916.536 706.804 916.755 707.06C917.48 707.909 919.53 709.509 923.716 707.509C928.261 705.338 924.677 692.486 923.362 688.279C923.1 687.441 922.928 686.946 922.928 686.946C922.928 686.946 923.216 687.56 923.782 687.993ZM923.369 686.74L923.369 686.739C923.369 686.739 923.369 686.74 923.363 686.742L922.469 687.106L922.71 687.022C922.469 687.106 922.469 687.106 922.469 687.106L922.469 687.106L922.47 687.109L922.473 687.118L922.486 687.155C922.493 687.176 922.502 687.203 922.513 687.235C922.52 687.256 922.527 687.278 922.536 687.303C922.557 687.368 922.584 687.447 922.615 687.541C922.646 687.637 922.683 687.748 922.723 687.872C922.881 688.365 923.102 689.072 923.35 689.929C923.847 691.644 924.452 693.953 924.887 696.339C925.323 698.731 925.583 701.17 925.407 703.155C925.229 705.172 924.619 706.538 923.507 707.07C920.886 708.321 919.224 708.072 918.245 707.6C917.744 707.359 917.395 707.047 917.171 706.798C917.06 706.673 916.981 706.565 916.931 706.491C916.906 706.454 916.889 706.425 916.879 706.408C916.874 706.399 916.87 706.393 916.869 706.39L916.868 706.389L916.867 706.388L916.422 705.537L916 706.403M916 706.403L916 706.404L915.999 706.407L915.991 706.422C915.984 706.436 915.973 706.458 915.958 706.487C915.927 706.545 915.882 706.63 915.821 706.738C915.699 706.953 915.517 707.255 915.28 707.599C914.804 708.29 914.119 709.129 913.266 709.768C912.416 710.406 911.429 710.824 910.328 710.74C909.233 710.657 907.937 710.072 906.475 708.527C905.385 707.048 904.486 705.411 903.803 703.661L903.455 702.77L902.94 703.576L902.939 703.577L902.936 703.581L902.922 703.602C902.91 703.621 902.891 703.65 902.866 703.687C902.815 703.762 902.74 703.872 902.641 704.009C902.445 704.283 902.157 704.665 901.798 705.092C901.075 705.951 900.079 706.97 898.956 707.674C897.831 708.379 896.645 708.728 895.495 708.382C894.342 708.035 893.08 706.948 891.904 704.45C890.57 701.609 889.907 700.072 889.578 699.25C889.414 698.838 889.335 698.612 889.299 698.494C889.289 698.462 889.283 698.439 889.279 698.424V697.693L888.579 698.033L888.792 698.471C888.58 698.033 888.58 698.033 888.579 698.033L888.579 698.033L888.577 698.034L888.537 698.054L888.411 698.115C888.299 698.168 888.135 698.248 887.922 698.349C887.497 698.553 886.879 698.847 886.11 699.207C884.572 699.928 882.43 700.915 880.015 701.98C875.179 704.112 869.273 706.546 864.927 707.786C857.447 709.905 849.795 711.214 842.082 711.694L740.707 654.728L740.704 654.726L740.7 654.725C733.884 651.031 728.196 645.233 724.34 638.038C720.484 630.841 718.631 622.565 719.012 614.226L719.012 614.219C719.271 606.412 722.075 598.971 726.907 593.243L766.603 548.47L800.187 586.738L775.709 614.583L862.529 685.229L878.977 676.73L879.006 676.71L878.955 676.64C879.006 676.71 879.006 676.71 879.006 676.71L879.006 676.71L879.015 676.703L879.042 676.684C879.066 676.667 879.102 676.641 879.15 676.607C879.245 676.54 879.384 676.442 879.563 676.316C879.92 676.066 880.432 675.709 881.054 675.285C882.299 674.436 883.979 673.316 885.725 672.232C887.474 671.147 889.276 670.105 890.767 669.407C891.514 669.056 892.165 668.801 892.683 668.666C892.942 668.598 893.153 668.565 893.317 668.561C893.485 668.556 893.569 668.582 893.602 668.599L893.861 668.735L894.102 668.57L894.102 668.57L894.105 668.568L894.119 668.558C894.132 668.55 894.151 668.537 894.177 668.52C894.229 668.486 894.308 668.436 894.41 668.372C894.616 668.245 894.917 668.065 895.298 667.858C896.062 667.442 897.139 666.919 898.395 666.486C900.923 665.614 904.088 665.136 906.888 666.514L907.103 666.62L907.319 666.513C910.704 664.83 914.469 664.305 918.127 665.003C919.434 665.308 920.923 666.409 922.389 668.063C923.844 669.706 925.223 671.834 926.317 674.081C927.412 676.33 928.211 678.674 928.523 680.743C928.837 682.834 928.642 684.546 927.874 685.626C927.02 686.828 926.303 687.44 925.738 687.719C925.193 687.989 924.779 687.955 924.463 687.829C924.125 687.694 923.851 687.433 923.652 687.179C923.555 687.055 923.482 686.941 923.434 686.859C923.41 686.818 923.392 686.785 923.381 686.764C923.376 686.754 923.372 686.746 923.37 686.742L923.369 686.74" fill="#333333"></path> <path d="M906.284 667.106C906.618 666.849 907.003 666.683 907.407 666.621C908.491 666.361 909.617 666.402 910.683 666.739C912.253 667.229 913.72 668.053 915.001 669.163C915.773 669.794 916.493 670.497 917.154 671.264C917.82 672.167 918.386 673.153 918.839 674.203C920.423 677.707 921.742 681.348 922.783 685.09C923.184 686.559 923.451 687.691 923.625 688.514C923.75 688.931 923.808 689.368 923.799 689.807C923.705 689.807 923.224 688.058 922.315 685.252C921.136 681.597 919.765 678.021 918.21 674.541C917.789 673.566 917.259 672.653 916.633 671.823C916.009 671.085 915.334 670.402 914.614 669.78C913.418 668.707 912.06 667.872 910.603 667.312C909.2 666.856 907.717 666.786 906.284 667.106V667.106Z" fill="#333333"></path> <path fill-rule="evenodd" clip-rule="evenodd" d="M906.284 667.106C906.672 667.02 907.063 666.962 907.455 666.932C907.464 666.931 907.472 666.931 907.481 666.93C907.91 666.899 908.341 666.902 908.769 666.939C909.388 666.993 910.003 667.117 910.603 667.312C912.06 667.872 913.418 668.707 914.614 669.78C915.334 670.402 916.009 671.085 916.633 671.823C917.259 672.653 917.789 673.566 918.21 674.541C919.765 678.021 921.136 681.597 922.315 685.252C922.331 685.302 922.347 685.352 922.363 685.401C922.699 686.44 922.974 687.328 923.191 688.029C923.252 688.224 923.308 688.405 923.359 688.57C923.361 688.577 923.364 688.584 923.366 688.591C923.609 689.371 923.752 689.805 923.799 689.807C923.799 689.807 923.799 689.807 923.799 689.807C923.8 689.747 923.8 689.687 923.799 689.627C923.791 689.249 923.733 688.874 923.625 688.514C923.458 687.723 923.205 686.648 922.83 685.262C922.814 685.206 922.799 685.148 922.783 685.09C921.742 681.348 920.423 677.707 918.839 674.203C918.386 673.153 917.82 672.167 917.154 671.264C916.493 670.497 915.773 669.794 915.001 669.163C913.72 668.053 912.253 667.229 910.683 666.739C910.065 666.543 909.426 666.447 908.787 666.452C908.325 666.456 907.862 666.512 907.407 666.621C907.003 666.683 906.618 666.849 906.284 667.106Z" fill="#333333"></path> <path d="M916.503 706.836C916.198 706.33 915.946 705.788 915.75 705.221L913.887 700.769C912.315 697.001 910.017 691.851 907.824 685.987C906.942 683.199 905.776 680.529 904.35 678.029C903.119 676.067 901.425 674.512 899.45 673.533C898.137 672.834 896.674 672.547 895.223 672.704C894.193 672.849 893.664 673.155 893.638 673.082C893.611 673.009 893.757 672.98 894.008 672.835C894.374 672.633 894.766 672.491 895.17 672.413C896.686 672.128 898.245 672.346 899.648 673.039C901.744 674.002 903.552 675.595 904.866 677.636C906.349 680.156 907.556 682.862 908.458 685.696C910.638 691.516 912.87 696.724 914.336 700.551C915.063 702.457 915.657 704.028 916.001 705.105C916.225 705.66 916.393 706.241 916.503 706.836V706.836Z" fill="#333333"></path> <path fill-rule="evenodd" clip-rule="evenodd" d="M916.503 706.836C916.395 706.25 916.23 705.678 916.011 705.131C916.009 705.125 916.007 705.12 916.005 705.115C916.003 705.111 916.002 705.108 916.001 705.105C915.678 704.094 915.135 702.648 914.469 700.899C914.425 700.784 914.381 700.668 914.336 700.551C913.74 698.993 913.016 697.207 912.22 695.243C911.062 692.383 909.751 689.147 908.458 685.696C907.556 682.862 906.349 680.156 904.866 677.636C903.552 675.595 901.744 674.002 899.648 673.039C899.239 672.836 898.816 672.675 898.386 672.554C897.346 672.263 896.258 672.212 895.191 672.409C895.188 672.41 895.185 672.41 895.182 672.411C895.178 672.412 895.174 672.412 895.17 672.413C894.779 672.488 894.4 672.623 894.044 672.815C894.032 672.822 894.02 672.828 894.008 672.835C893.924 672.883 893.852 672.919 893.795 672.947C893.679 673.005 893.62 673.034 893.638 673.082C893.648 673.111 893.735 673.081 893.897 673.027C893.95 673.009 894.011 672.989 894.08 672.966C894.081 672.966 894.082 672.966 894.083 672.965C894.091 672.963 894.1 672.96 894.108 672.958C894.37 672.875 894.742 672.772 895.223 672.704C895.224 672.704 895.224 672.704 895.225 672.704C895.225 672.704 895.226 672.704 895.226 672.704C896.245 672.594 897.27 672.703 898.245 673.02C898.657 673.154 899.06 673.326 899.45 673.533C901.425 674.512 903.119 676.067 904.35 678.029C905.776 680.529 906.942 683.199 907.824 685.987C909.467 690.379 911.168 694.37 912.579 697.68C913.052 698.79 913.493 699.823 913.887 700.769L915.75 705.221C915.946 705.788 916.198 706.33 916.503 706.836ZM914.336 700.581C914.332 700.573 914.329 700.564 914.325 700.555Z" fill="#333333"></path> <path d="M877.091 684.361C877.507 684.037 877.951 683.76 878.418 683.535L882.242 681.52C883.065 681.1 883.928 680.636 884.897 680.172C885.988 679.697 887.166 679.509 888.336 679.621C889.638 679.735 890.887 680.236 891.947 681.071C893.016 682.025 893.915 683.184 894.602 684.492C895.332 685.796 895.93 687.145 896.461 688.391C896.992 689.638 897.616 690.841 898.2 691.972C899.355 694.219 900.444 696.234 901.24 698.002C901.896 699.384 902.464 700.813 902.94 702.279C903.152 702.8 903.295 703.352 903.365 703.917C903.258 703.917 902.541 701.67 900.815 698.249C899.953 696.538 898.837 694.567 897.642 692.32C897.045 691.189 896.448 689.986 895.863 688.725C895.279 687.463 894.722 686.144 894.018 684.883C893.375 683.66 892.544 682.567 891.562 681.65C890.615 680.86 889.492 680.36 888.309 680.201C887.235 680.074 886.149 680.223 885.136 680.636C884.18 681.056 883.264 681.52 882.481 681.882L878.565 683.81C878.095 684.058 877.601 684.243 877.091 684.361Z" fill="#333333"></path> <path fill-rule="evenodd" clip-rule="evenodd" d="M878.418 683.535C877.951 683.76 877.507 684.037 877.091 684.361C877.597 684.244 878.088 684.061 878.554 683.816C878.557 683.814 878.561 683.812 878.564 683.811C878.564 683.811 878.564 683.81 878.565 683.81L882.481 681.882C882.775 681.746 883.088 681.596 883.415 681.439C883.62 681.34 883.831 681.239 884.046 681.137C884.4 680.969 884.765 680.799 885.136 680.636C886.149 680.223 887.235 680.074 888.309 680.201C889.492 680.36 890.615 680.86 891.562 681.65C892.544 682.567 893.375 683.66 894.018 684.883C894.557 685.848 895.01 686.848 895.454 687.829C895.591 688.13 895.726 688.429 895.863 688.725C896.448 689.986 897.045 691.189 897.642 692.32C898.107 693.193 898.559 694.025 898.989 694.816C899.666 696.06 900.288 697.203 900.815 698.249C900.832 698.282 900.849 698.315 900.865 698.348C901.7 700.01 902.294 701.389 902.694 702.358C902.697 702.364 902.699 702.37 902.702 702.376C902.816 702.654 902.915 702.898 902.999 703.105C903.211 703.63 903.327 703.917 903.365 703.917C903.295 703.352 903.152 702.8 902.94 702.279C902.479 700.86 901.932 699.476 901.303 698.136C901.282 698.091 901.261 698.047 901.24 698.002C900.642 696.674 899.878 695.206 899.046 693.605C898.77 693.075 898.487 692.531 898.2 691.972L898.165 691.903C897.591 690.793 896.981 689.613 896.461 688.391C895.93 687.145 895.332 685.796 894.602 684.492C893.915 683.184 893.016 682.025 891.947 681.071C890.887 680.236 889.638 679.735 888.336 679.621C887.166 679.509 885.988 679.697 884.897 680.172C884.527 680.349 884.173 680.526 883.83 680.701C883.538 680.85 883.255 680.997 882.978 681.14C882.748 681.26 882.522 681.377 882.3 681.49C882.297 681.492 882.293 681.494 882.29 681.495C882.274 681.503 882.258 681.512 882.242 681.52L878.418 683.535Z" fill="#333333"></path> <path d="M879.037 676.67C878.679 676.988 878.283 677.253 877.859 677.458C877.082 677.93 875.944 678.589 874.525 679.391C871.7 680.995 867.763 683.172 863.398 685.521C859.033 687.87 855.07 689.961 852.178 691.451L848.75 693.169C848.328 693.409 847.878 693.587 847.411 693.699C847.777 693.381 848.177 693.112 848.603 692.897C849.379 692.439 850.517 691.78 851.937 690.978C854.762 689.374 858.698 687.211 863.063 684.848C867.428 682.485 871.392 680.408 874.27 678.933C875.716 678.188 876.948 677.601 877.711 677.2C878.127 676.955 878.573 676.777 879.037 676.67V676.67Z" fill="#333333"></path> <path fill-rule="evenodd" clip-rule="evenodd" d="M879.037 676.67C878.58 676.775 878.14 676.95 877.729 677.189C877.723 677.193 877.717 677.196 877.711 677.2C877.709 677.201 877.707 677.202 877.704 677.204C877.342 677.394 876.875 677.625 876.331 677.896C875.933 678.093 875.494 678.311 875.024 678.549C874.78 678.672 874.529 678.8 874.27 678.933C871.392 680.408 867.428 682.485 863.063 684.848C858.698 687.211 854.762 689.374 851.937 690.978C851.678 691.124 851.428 691.266 851.188 691.403C850.119 692.011 849.245 692.518 848.611 692.892C848.608 692.894 848.606 692.896 848.603 692.897C848.601 692.898 848.599 692.899 848.597 692.9C848.173 693.114 847.775 693.383 847.411 693.699C847.875 693.588 848.322 693.411 848.742 693.174C848.745 693.172 848.747 693.171 848.75 693.169L852.178 691.451C855.07 689.961 859.033 687.87 863.398 685.521C867.763 683.172 871.7 680.995 874.525 679.391C874.776 679.249 875.019 679.111 875.253 678.978C876.331 678.364 877.212 677.851 877.85 677.463C877.853 677.461 877.856 677.459 877.859 677.458C877.86 677.457 877.861 677.457 877.862 677.456C878.285 677.252 878.68 676.987 879.037 676.67Z" fill="#333333"></path> <path d="M777.835 614.762C774.395 614.207 770.906 614.085 767.44 614.398C763.999 614.951 760.629 615.929 757.399 617.31C758.22 616.613 759.142 616.062 760.128 615.679C762.432 614.623 764.867 613.926 767.358 613.612C769.855 613.297 772.382 613.366 774.861 613.815C775.893 613.957 776.898 614.277 777.835 614.762Z" fill="#333333"></path> <path fill-rule="evenodd" clip-rule="evenodd" d="M767.44 614.398C770.196 614.149 772.967 614.176 775.717 614.476C776.424 614.553 777.13 614.648 777.835 614.762C777.185 614.426 776.503 614.169 775.802 613.996C775.492 613.919 775.178 613.859 774.861 613.815C772.382 613.366 769.855 613.297 767.358 613.612C764.867 613.926 762.432 614.623 760.128 615.679C759.891 615.771 759.657 615.873 759.428 615.984C758.704 616.335 758.023 616.78 757.399 617.31C758.132 616.997 758.872 616.704 759.618 616.433C762.162 615.507 764.779 614.826 767.44 614.398Z" fill="#333333"></path> <path d="M753.941 551.114L761.24 543.815L835.682 563.764L794.812 594.173L753.941 551.114Z" fill="#CA5D4B"></path> <path d="M878.698 650.539C878.698 650.539 878.537 650.715 878.187 650.992C877.836 651.27 877.324 651.694 876.608 652.162C874.612 653.505 872.487 654.646 870.264 655.567C862.866 658.719 854.671 659.492 846.815 657.779C838.958 656.066 831.828 651.953 826.414 646.008C824.765 644.238 823.296 642.309 822.029 640.249C821.575 639.533 821.298 638.933 821.079 638.539C820.964 638.345 820.871 638.139 820.801 637.925C821.332 638.615 821.82 639.338 822.262 640.088C823.599 642.062 825.105 643.916 826.764 645.628C832.175 651.37 839.193 655.343 846.901 657.028C854.608 658.713 862.644 658.031 869.957 655.07C872.175 654.201 874.312 653.14 876.345 651.899C877.894 650.978 878.654 650.451 878.698 650.539Z" fill="#333333"></path> <path d="M858.643 502.193C858.701 502.302 858.741 502.421 858.76 502.544C858.833 502.821 858.921 503.158 859.023 503.581C859.242 504.488 859.549 505.847 859.915 507.586C860.997 512.509 861.695 517.509 862.005 522.54C862.192 526.03 861.991 529.53 861.405 532.976C860.698 536.95 859.287 540.767 857.24 544.246C854.867 548.006 851.946 551.391 848.572 554.287C845.137 557.357 841.337 560.134 837.463 563.145C829.219 569.328 821.209 574.926 814.076 580.013C806.943 585.1 800.585 589.645 795.527 593.475L795.367 593.607L795.206 593.475C791.637 590.644 788.25 587.593 785.062 584.34C784.2 583.464 783.403 582.526 782.679 581.533C782.431 581.197 782.285 580.919 782.168 580.744C782.108 580.65 782.054 580.552 782.007 580.451C782.007 580.451 782.285 580.802 782.796 581.445C783.565 582.391 784.385 583.293 785.252 584.149C788.503 587.304 791.918 590.285 795.484 593.08H795.162C800.19 589.192 806.475 584.559 813.638 579.457C820.8 574.356 828.781 568.729 837.025 562.546C840.883 559.622 844.684 556.772 848.09 553.776C851.417 550.934 854.304 547.614 856.655 543.924C858.682 540.533 860.083 536.804 860.792 532.917C861.397 529.513 861.628 526.053 861.479 522.598C861.217 517.591 860.602 512.609 859.637 507.689C859.315 505.979 859.067 504.634 858.877 503.655C858.799 503.236 858.74 502.885 858.701 502.602C858.657 502.47 858.637 502.332 858.643 502.193V502.193Z" fill="#333333"></path> <path d="M949.194 481.784C947.917 487.577 947.175 493.479 946.977 499.413C942.276 498.012 937.934 495.585 934.257 492.304C930.58 489.022 927.657 484.966 925.694 480.42L949.194 481.784Z" fill="#333333" fill-opacity="0.4"></path> <path d="M909.371 467.671C882.636 439.272 898.332 381.798 923.617 372.228C970.754 354.38 987.588 384.712 989.706 401.588C991.479 415.872 981.705 433.95 983.08 442.541C986.531 464.018 963.544 487.524 949.998 488.425C941.517 489.101 932.966 485.431 923.8 479.242" fill="#FFD6CB"></path> <path fill-rule="evenodd" clip-rule="evenodd" d="M972.976 374.676C962.941 367.453 947.31 364.298 923.962 373.139L923.962 373.139C917.903 375.432 912.326 380.638 907.784 387.711C903.249 394.773 899.793 403.624 897.942 413.076C894.234 432.014 897.006 453.115 910.08 467.004C910.449 467.395 910.43 468.011 910.039 468.38C909.648 468.748 909.032 468.729 908.663 468.338C895.003 453.828 892.255 431.993 896.032 412.702C897.924 403.039 901.463 393.953 906.146 386.659C910.823 379.377 916.69 373.81 923.273 371.318C947.062 362.311 963.416 365.397 974.113 373.097C984.751 380.755 989.589 392.834 990.672 401.467L990.672 401.469C991.586 408.831 989.524 417.103 987.48 424.46C987.262 425.247 987.043 426.024 986.828 426.788C986.029 429.628 985.277 432.3 984.735 434.738C984.043 437.847 983.729 440.434 984.041 442.387C985.828 453.506 980.77 465.025 973.67 473.811C970.109 478.218 966.002 481.981 961.907 484.706C957.83 487.419 953.691 489.153 950.07 489.396C941.257 490.095 932.477 486.275 923.256 480.048C922.81 479.748 922.693 479.143 922.994 478.697C923.295 478.252 923.9 478.135 924.345 478.435C933.454 484.586 941.775 488.104 949.922 487.455L949.934 487.454C953.085 487.245 956.896 485.703 960.829 483.086C964.745 480.479 968.709 476.854 972.156 472.587C979.074 464.026 983.784 453.054 982.12 442.696L982.12 442.695C981.745 440.353 982.136 437.458 982.835 434.315C983.39 431.82 984.162 429.078 984.963 426.23C985.176 425.473 985.392 424.708 985.605 423.939C987.661 416.538 989.6 408.629 988.741 401.708C987.706 393.466 983.068 381.941 972.976 374.676Z" fill="#333333"></path> <path fill-rule="evenodd" clip-rule="evenodd" d="M956.796 466.782C957.82 466.236 958.245 465.549 958.316 464.963C958.387 464.377 958.138 463.608 957.274 462.833C956.415 462.063 955.073 461.426 953.436 461.227C951.799 461.029 950.344 461.327 949.326 461.87C948.302 462.417 947.877 463.104 947.806 463.689C947.735 464.275 947.983 465.044 948.848 465.819C949.706 466.59 951.048 467.227 952.685 467.425C954.322 467.623 955.778 467.325 956.796 466.782ZM952.451 469.357C956.421 469.838 959.911 467.975 960.248 465.197C960.584 462.418 957.64 459.776 953.67 459.295C949.701 458.814 946.21 460.677 945.874 463.455C945.537 466.234 948.482 468.876 952.451 469.357Z" fill="#333333"></path> <path d="M940.72 425.941C940.544 428.75 939.04 430.993 937.322 430.922C935.604 430.852 934.282 428.576 934.538 425.709C934.795 422.842 936.247 420.655 937.937 420.728C939.626 420.8 940.886 423.003 940.72 425.941Z" fill="#333333"></path> <path d="M974.998 425.164C974.878 428.318 973.366 430.826 971.646 430.73C969.926 430.634 968.58 428.063 968.809 424.842C969.037 421.621 970.469 419.177 972.16 419.276C973.852 419.374 975.143 421.979 974.998 425.164Z" fill="#333333"></path> <path fill-rule="evenodd" clip-rule="evenodd" d="M956.236 432.329C956.724 432.104 957.302 432.317 957.528 432.805C958.724 435.395 960.682 437.624 963.192 439.237C963.834 439.55 964.293 440.042 964.504 440.689C964.71 441.319 964.641 441.977 964.477 442.566C964.152 443.728 963.343 444.991 962.502 446.096C961.642 447.226 960.669 448.29 959.919 449.066C959.542 449.455 959.218 449.776 958.987 449.999C958.872 450.111 958.78 450.199 958.716 450.259C958.684 450.29 958.659 450.313 958.642 450.329L958.622 450.348L958.616 450.353L958.614 450.355C958.614 450.355 958.614 450.355 957.953 449.641L958.614 450.355C958.219 450.72 957.603 450.696 957.238 450.302C956.874 449.907 956.898 449.291 957.292 448.926L957.293 448.926L957.296 448.923L957.313 448.907C957.327 448.894 957.349 448.873 957.379 448.845C957.437 448.79 957.523 448.708 957.632 448.602C957.851 448.39 958.16 448.085 958.52 447.713C959.243 446.965 960.158 445.962 960.953 444.917C961.767 443.849 962.382 442.831 962.602 442.042C962.711 441.654 962.696 441.42 962.654 441.293C962.626 441.205 962.563 441.089 962.311 440.973C962.271 440.954 962.233 440.933 962.196 440.91C959.36 439.103 957.127 436.58 955.761 433.621C955.536 433.133 955.748 432.555 956.236 432.329Z" fill="#333333"></path> <path d="M903.8 422.421C903.8 422.421 895.874 415.806 891.339 420.147C886.805 424.487 886.264 441.71 893.475 446.954C900.685 452.197 903.83 459.348 904.529 453.804" fill="#FFD6CB"></path> <path fill-rule="evenodd" clip-rule="evenodd" d="M904.423 421.674C904.423 421.674 904.424 421.674 903.8 422.421L904.424 421.674C904.836 422.019 904.891 422.632 904.547 423.045C904.203 423.457 903.589 423.513 903.177 423.169L903.177 423.169L903.177 423.169L903.176 423.168L903.174 423.167L903.161 423.156C903.148 423.145 903.128 423.129 903.102 423.108C903.048 423.065 902.966 423 902.86 422.919C902.646 422.756 902.334 422.525 901.944 422.261C901.161 421.729 900.083 421.072 898.881 420.548C896.396 419.465 893.82 419.12 892.013 420.85C891.075 421.747 890.249 423.426 889.691 425.665C889.14 427.873 888.879 430.505 888.976 433.176C889.072 435.849 889.526 438.524 890.375 440.827C891.227 443.137 892.452 445.006 894.047 446.167C896.864 448.215 899.109 450.579 900.765 452.324C901.275 452.861 901.729 453.339 902.127 453.731C902.562 454.16 902.907 454.465 903.182 454.657C903.242 454.699 903.293 454.731 903.335 454.756C903.412 454.557 903.497 454.22 903.565 453.682C903.632 453.149 904.119 452.771 904.652 452.838C905.185 452.906 905.563 453.392 905.495 453.926C905.404 454.651 905.261 455.282 905.015 455.761C904.752 456.273 904.289 456.743 903.574 456.782C902.981 456.814 902.454 456.522 902.07 456.254C901.654 455.965 901.214 455.564 900.761 455.117C900.301 454.664 899.804 454.141 899.263 453.572C897.615 451.837 895.558 449.672 892.903 447.741C890.893 446.279 889.482 444.03 888.549 441.5C887.613 438.963 887.133 436.078 887.031 433.247C886.928 430.415 887.202 427.599 887.802 425.194C888.395 422.818 889.337 420.717 890.667 419.444C893.394 416.833 897.048 417.626 899.659 418.764C901.006 419.352 902.192 420.077 903.037 420.65C903.461 420.938 903.804 421.191 904.042 421.372C904.161 421.463 904.254 421.537 904.318 421.589C904.351 421.615 904.376 421.635 904.393 421.649L904.414 421.667L904.42 421.672L904.422 421.673L904.423 421.674Z" fill="#333333"></path> <path d="M1120.87 420.397C1121.54 420.883 1122.17 421.42 1122.75 422.005C1124.52 423.646 1126 425.567 1127.14 427.69C1127.93 429.238 1128.47 430.9 1128.75 432.616C1129.08 434.84 1128.77 437.113 1127.85 439.164C1126.92 441.214 1125.43 442.955 1123.54 444.178C1122.43 444.897 1121.17 445.352 1119.86 445.508C1118.47 445.656 1117.06 445.455 1115.77 444.924C1110.34 442.702 1107.61 436.431 1101.75 433.64C1096.03 430.614 1088.73 430.409 1081.71 432.017C1074.69 433.625 1067.84 437.44 1060.92 441.328C1054.01 445.216 1046.66 449.382 1038.19 450.829C1034.04 451.634 1029.77 451.604 1025.62 450.741C1023.59 450.277 1021.62 449.55 1019.78 448.578C1017.99 447.596 1016.33 446.377 1014.87 444.953C1012.08 442.12 1009.94 438.72 1008.58 434.984C1007.25 431.44 1006.38 427.742 1005.98 423.978C1005.2 416.669 1005.82 409.653 1005.89 403.178C1006.18 397.17 1005.59 391.151 1004.12 385.316C1003.43 382.797 1002.49 380.35 1001.33 378.008C1000.32 375.901 999.128 373.882 997.779 371.971C995.642 368.897 993.133 366.099 990.31 363.639C988.513 362.096 986.602 360.689 984.595 359.43L983.002 358.48L982.476 358.144C982.674 358.217 982.865 358.31 983.046 358.421L984.683 359.298C989.997 362.444 994.581 366.684 998.13 371.737C1001.05 375.813 1003.26 380.362 1004.63 385.185C1006.16 391.059 1006.8 397.13 1006.52 403.193C1006.52 409.712 1005.89 416.669 1006.68 423.905C1007.08 427.603 1007.94 431.237 1009.24 434.721C1010.57 438.354 1012.66 441.659 1015.38 444.412C1016.79 445.793 1018.38 446.974 1020.11 447.92C1021.9 448.847 1023.79 449.549 1025.74 450.01C1029.79 450.839 1033.96 450.864 1038.02 450.083C1046.32 448.622 1053.6 444.544 1060.51 440.67C1067.43 436.797 1074.25 432.982 1081.5 431.33C1085.01 430.503 1088.62 430.198 1092.22 430.424C1093.94 430.545 1095.65 430.823 1097.32 431.257C1098.94 431.695 1100.51 432.308 1102 433.084C1108.06 436.007 1110.77 442.351 1115.93 444.412C1117.1 444.913 1118.39 445.117 1119.66 445.005C1120.94 444.893 1122.16 444.468 1123.24 443.769C1125.2 442.53 1126.73 440.712 1127.62 438.565C1128.39 436.719 1128.64 434.698 1128.35 432.719C1128.13 431.038 1127.63 429.404 1126.89 427.88C1125.81 425.773 1124.41 423.845 1122.74 422.165C1122.17 421.581 1121.72 421.157 1121.41 420.879C1121.1 420.601 1120.87 420.397 1120.87 420.397Z" fill="#333333"></path> <path d="M881.957 504.766C881.957 504.766 881.957 504.546 881.84 504.108C881.764 503.459 881.632 502.819 881.446 502.193C880.773 499.772 879.547 497.54 877.865 495.674C875.15 492.764 871.846 490.467 868.174 488.935C863.935 486.991 858.673 486.012 852.914 484.96C847.155 483.907 840.621 482.65 834.745 478.733C831.482 476.529 828.742 473.638 826.716 470.261C824.69 466.885 823.428 463.107 823.018 459.191C822.609 455.275 823.062 451.317 824.345 447.594C825.629 443.872 827.711 440.476 830.448 437.645C836.499 431.433 845.064 428.349 852.051 422.897C853.764 421.523 855.305 419.947 856.641 418.205C857.898 416.427 858.847 414.45 859.447 412.358C860.617 408.207 860.514 403.865 860.909 399.641C861.068 397.524 861.46 395.431 862.078 393.4C862.727 391.388 863.776 389.529 865.163 387.933C868.036 385.052 871.655 383.028 875.614 382.086C879.37 380.99 883.112 380.303 886.635 379.338C890.08 378.459 893.341 376.974 896.267 374.953C898.967 373.043 901.391 370.77 903.473 368.2C905.425 365.898 907.245 363.487 908.925 360.98C912.156 356.098 914.918 351.523 917.856 347.825C920.288 344.633 923.157 341.798 926.378 339.405C928.425 337.903 930.7 336.738 933.116 335.956C933.947 335.664 934.804 335.448 935.674 335.312C935.674 335.312 934.783 335.517 933.16 336.102C930.787 336.936 928.558 338.135 926.553 339.654C923.386 342.061 920.572 344.9 918.192 348.088C915.269 351.742 912.58 356.302 909.422 361.243C907.761 363.839 905.945 366.333 903.985 368.712C901.873 371.333 899.415 373.654 896.676 375.611C893.695 377.636 890.38 379.121 886.883 379.996C883.317 380.99 879.575 381.677 875.877 382.773C872.047 383.67 868.543 385.619 865.762 388.401C864.448 389.922 863.454 391.691 862.838 393.604C862.239 395.583 861.862 397.623 861.713 399.685C861.318 403.865 861.435 408.236 860.251 412.548C859.625 414.706 858.637 416.743 857.328 418.57C855.951 420.364 854.36 421.984 852.592 423.394C849.013 426.03 845.257 428.418 841.352 430.541C837.629 432.597 834.19 435.127 831.12 438.069C828.453 440.826 826.422 444.133 825.168 447.758C823.914 451.383 823.468 455.238 823.86 459.053C824.253 462.869 825.475 466.552 827.441 469.846C829.407 473.139 832.07 475.963 835.242 478.119C840.942 481.963 847.432 483.191 853.148 484.346C858.863 485.501 864.198 486.451 868.466 488.453C872.178 490.032 875.504 492.396 878.215 495.382C879.898 497.298 881.1 499.588 881.723 502.061C881.892 502.698 881.999 503.349 882.045 504.005C881.957 504.546 881.957 504.766 881.957 504.766Z" fill="#333333"></path> <path d="M998.657 373.55C998.274 373.512 997.899 373.413 997.546 373.258C996.548 372.931 995.571 372.541 994.623 372.088C988.294 369.108 982.894 364.465 978.998 358.655C978.412 357.782 977.88 356.874 977.404 355.937C977.196 355.608 977.043 355.248 976.951 354.87C977.053 354.87 977.887 356.214 979.436 358.334C983.494 363.879 988.769 368.419 994.857 371.606C997.181 372.819 998.716 373.433 998.657 373.55Z" fill="#F3F3FF"></path> <path d="M1047.26 473.251C1047.26 473.251 1046.34 473.017 1044.69 472.667C1042.35 472.172 1039.97 471.879 1037.58 471.79C1034.04 471.693 1030.5 471.796 1026.97 472.097C1022.97 472.374 1018.55 472.784 1013.89 472.681C1009.47 472.681 1005.1 471.859 1000.98 470.255C997.641 468.86 994.677 466.696 992.329 463.94C990.754 462.079 989.619 459.885 989.011 457.524C988.851 456.886 988.748 456.235 988.704 455.58C988.672 455.352 988.672 455.12 988.704 454.893C988.792 454.893 988.836 455.828 989.303 457.451C990.015 459.717 991.195 461.809 992.767 463.59C995.099 466.228 998.011 468.289 1001.27 469.612C1005.32 471.137 1009.6 471.919 1013.92 471.921C1018.52 472.024 1022.92 471.643 1026.94 471.395C1030.5 471.118 1034.07 471.069 1037.63 471.249C1040.04 471.39 1042.43 471.767 1044.77 472.374C1045.41 472.542 1046.03 472.742 1046.65 472.974C1046.86 473.033 1047.07 473.127 1047.26 473.251V473.251Z" fill="#F3F3FF"></path> <path d="M1133.4 539.715C1133.4 539.715 1133.26 539.715 1132.97 539.905C1132.56 540.094 1132.12 540.236 1131.67 540.328C1129.94 540.699 1128.13 540.618 1126.44 540.095C1123.77 539.238 1121.36 537.731 1119.42 535.71C1116.96 532.942 1115.05 529.733 1113.78 526.252C1112.19 522.511 1110.86 518.213 1108.24 514.237C1106.92 512.179 1105.36 510.28 1103.61 508.581C1101.71 506.804 1099.63 505.231 1097.41 503.889C1088.23 498.349 1076.17 496.083 1063.79 496.814C1051.41 497.545 1039.76 499.884 1028.99 500.629C1019.43 501.652 1009.77 500.656 1000.63 497.706C994.444 495.695 988.854 492.179 984.362 487.474C983.666 486.741 983.017 485.965 982.418 485.15C981.951 484.575 981.531 483.964 981.161 483.323C980.869 482.84 980.635 482.446 980.445 482.153C980.354 482.027 980.28 481.89 980.226 481.744C980.226 481.744 980.343 481.861 980.518 482.11L981.278 483.235C981.679 483.852 982.118 484.442 982.594 485.004C983.206 485.801 983.87 486.558 984.581 487.269C989.104 491.828 994.667 495.219 1000.79 497.15C1009.88 499.999 1019.46 500.934 1028.93 499.898C1039.64 499.109 1051.28 496.653 1063.75 496.01C1076.21 495.367 1088.38 497.574 1097.7 503.246C1099.96 504.623 1102.08 506.235 1104 508.054C1105.79 509.814 1107.37 511.776 1108.71 513.901C1111.35 517.979 1112.65 522.32 1114.22 526.048C1115.42 529.487 1117.27 532.666 1119.66 535.417C1121.53 537.415 1123.86 538.922 1126.45 539.802C1128.1 540.356 1129.86 540.482 1131.57 540.168C1132.81 539.963 1133.38 539.656 1133.4 539.715Z" fill="#F3F3FF"></path> <path d="M878.886 497.881C889.045 495.849 896.879 487.123 900.373 477.417C903.866 467.711 903.676 457.026 902.755 446.722C902.781 446.055 902.672 445.39 902.433 444.767C902.194 444.143 901.832 443.575 901.367 443.097C899.832 441.913 897.625 442.877 895.959 443.886C889.554 447.78 883.416 452.097 877.585 456.807C872.148 461.192 866.769 466.235 864.678 472.886C861.477 483.118 868.245 495.323 878.608 498.012" fill="#333333"></path> <path fill-rule="evenodd" clip-rule="evenodd" d="M967.467 414.194L967.471 414.191L967.512 414.169C967.551 414.148 967.614 414.116 967.697 414.074C967.865 413.992 968.114 413.876 968.426 413.75C969.055 413.496 969.909 413.214 970.841 413.078C972.695 412.807 974.64 413.114 975.992 415.118C976.421 415.753 977.282 415.92 977.917 415.492C978.551 415.063 978.719 414.202 978.291 413.567C976.119 410.348 972.884 409.977 970.441 410.335C969.224 410.512 968.15 410.871 967.388 411.179C967.003 411.334 966.691 411.48 966.471 411.588C966.361 411.643 966.273 411.688 966.211 411.721C966.18 411.738 966.155 411.751 966.136 411.761L966.114 411.774L966.106 411.778L966.103 411.78L966.102 411.78L966.101 411.781C965.435 412.158 965.2 413.004 965.578 413.67C965.954 414.336 966.8 414.571 967.466 414.194L967.464 414.195" fill="#333333"></path> <path fill-rule="evenodd" clip-rule="evenodd" d="M932.305 415.909L932.308 415.906L932.339 415.871C932.369 415.837 932.416 415.785 932.48 415.717C932.608 415.581 932.801 415.385 933.049 415.158C933.55 414.7 934.252 414.138 935.078 413.685C936.721 412.784 938.651 412.394 940.62 413.804C941.243 414.25 942.109 414.107 942.554 413.483C942.999 412.86 942.854 411.993 942.231 411.546C939.069 409.282 935.909 410.062 933.743 411.25C932.665 411.841 931.784 412.552 931.177 413.107C930.871 413.387 930.629 413.632 930.461 413.811C930.377 413.9 930.311 413.973 930.264 414.026C930.24 414.053 930.222 414.074 930.208 414.09L930.191 414.11L930.185 414.116L930.183 414.119L930.182 414.12C930.182 414.12 930.185 414.116 930.191 414.11L930.185 414.116L930.182 414.121C929.689 414.707 929.765 415.583 930.352 416.077C930.938 416.571 931.812 416.496 932.305 415.91L932.303 415.912" fill="#333333"></path> <path d="M940.595 425.083C940.774 422.399 939.512 420.13 937.776 420.015C936.04 419.899 934.489 421.981 934.31 424.665C934.131 427.349 935.393 429.618 937.129 429.733C938.864 429.849 940.416 427.767 940.595 425.083Z" fill="#333333"></path> <path d="M974.9 424.833C974.951 422.143 973.583 419.937 971.844 419.904C970.105 419.871 968.654 422.024 968.602 424.713C968.551 427.402 969.92 429.609 971.659 429.642C973.398 429.675 974.849 427.522 974.9 424.833Z" fill="#333333"></path> <path fill-rule="evenodd" clip-rule="evenodd" d="M970.295 441.223C973.212 445.613 977.348 448.351 981.978 448.64C986.607 448.93 991.052 446.728 994.494 442.735C997.936 438.742 1000.31 433.015 1000.72 426.493C1001.13 419.971 999.485 413.993 996.567 409.602C993.65 405.213 989.513 402.475 984.884 402.185C980.255 401.896 975.809 404.098 972.368 408.09C968.926 412.084 966.552 417.811 966.144 424.333C965.736 430.855 967.377 436.833 970.295 441.223ZM967.986 442.758C964.704 437.819 962.935 431.23 963.377 424.16C963.385 424.042 963.393 423.925 963.401 423.808L954.279 423.614C954.268 424.093 954.247 424.574 954.217 425.058C953.746 432.594 951 439.324 946.876 444.106C942.752 448.89 937.186 451.783 931.15 451.406C925.114 451.028 919.952 447.465 916.456 442.206C912.961 436.947 911.075 429.928 911.546 422.392C912.018 414.856 914.764 408.126 918.887 403.343C923.011 398.559 928.578 395.666 934.614 396.044C940.649 396.421 945.812 399.984 949.308 405.244C952.141 409.506 953.917 414.926 954.236 420.84L963.716 421.041C964.619 415.241 966.975 410.101 970.268 406.281C974.141 401.788 979.375 399.064 985.057 399.419C990.739 399.774 995.593 403.128 998.876 408.068C1002.16 413.007 1003.93 419.596 1003.48 426.666C1003.04 433.736 1000.47 440.053 996.594 444.545C992.721 449.038 987.487 451.762 981.805 451.407C976.123 451.052 971.269 447.698 967.986 442.758ZM918.765 440.671C921.895 445.381 926.34 448.328 931.323 448.639C936.306 448.95 941.084 446.58 944.777 442.297C948.47 438.013 951.013 431.873 951.45 424.885C951.888 417.897 950.13 411.488 946.999 406.778C943.869 402.069 939.424 399.122 934.441 398.81C929.457 398.499 924.679 400.87 920.987 405.153C917.294 409.437 914.75 415.577 914.313 422.564C913.876 429.552 915.634 435.961 918.765 440.671Z" fill="#F3F3FF"></path> <path d="M1112.14 493.766L1064.21 418.304L1050.95 391.746C1050.95 391.746 1046.73 386.26 1042.34 381.576C1035.14 373.884 1028.02 379.857 1028.02 379.857C1027.62 378.949 1026.94 378.185 1026.08 377.671C1025.22 377.158 1024.21 376.921 1023.21 376.992C1021.91 376.991 1020.64 377.291 1019.49 377.866C1018.33 378.441 1017.34 379.276 1016.58 380.301C1016.58 380.301 1014.62 378.167 1009.18 377.837C1007.94 377.823 1006.73 378.205 1005.74 378.926C1003.96 377.393 1000.68 375.187 997.535 376.304C995.077 377.178 980.172 388.28 976.501 393.866C974.687 396.631 978.051 400.212 982.586 398.536C984.451 397.946 986.269 397.223 988.027 396.373C989.403 395.616 990.647 394.649 991.713 393.508C991.713 393.508 987.954 399.954 991.713 401.086C992.944 401.328 994.214 401.303 995.435 401.013C996.655 400.724 997.796 400.177 998.778 399.41C1000.24 398.235 1001.85 396.703 1003.41 395.198L1003.24 395.456C1001.16 398.464 1006.57 402.919 1009.19 401.115C1010.41 400.274 1011.58 399.365 1012.69 398.393C1018.77 402.69 1010.33 408.263 1006.76 407.976C1001.27 407.568 995.757 407.568 990.265 407.976C987.164 408.22 984.414 408.95 982.717 410.626C980.699 412.66 980.391 416.556 985.643 417.359C990.894 418.161 997.593 419.292 1004.56 421.054C1012.75 423.117 1034.21 429.95 1034.21 429.95L1036.3 431.612L1065.45 501.243L1015.54 511.6L1004.39 573.54L1094.5 549.589C1114.77 539.132 1124.44 512.674 1112.14 493.766Z" fill="#FFD6CB"></path> <path fill-rule="evenodd" clip-rule="evenodd" d="M1017.09 379.679C1017.76 378.936 1018.58 378.32 1019.49 377.866C1020.64 377.291 1021.91 376.991 1023.21 376.992C1024.21 376.92 1025.22 377.158 1026.08 377.671C1026.71 378.044 1027.23 378.548 1027.63 379.144C1027.78 379.369 1027.91 379.608 1028.02 379.857C1028.02 379.857 1028.25 379.66 1028.68 379.383C1030.61 378.137 1036.45 375.281 1042.34 381.576C1046.73 386.26 1050.95 391.746 1050.95 391.746L1064.21 418.304L1112.14 493.766C1124.44 512.674 1114.77 539.132 1094.5 549.589L1004.4 573.539L1015.54 511.6L1065.45 501.243L1036.3 431.611L1034.21 429.95C1034.21 429.95 1012.75 423.117 1004.56 421.054C997.594 419.292 990.894 418.161 985.643 417.358C980.392 416.556 980.699 412.66 982.718 410.626C984.414 408.95 987.164 408.219 990.265 407.976C995.757 407.568 1001.27 407.568 1006.76 407.976C1010.27 408.257 1018.46 402.895 1013.01 398.633C1012.91 398.552 1012.8 398.472 1012.69 398.393C1012.59 398.481 1012.49 398.568 1012.39 398.655C1011.37 399.528 1010.3 400.349 1009.19 401.114C1006.98 402.642 1002.76 399.685 1002.78 396.917C1002.78 396.537 1002.86 396.161 1003.04 395.801C1003.09 395.684 1003.16 395.569 1003.24 395.456L1003.42 395.198C1003.34 395.27 1003.27 395.342 1003.19 395.414C1003.19 395.415 1003.19 395.417 1003.19 395.419C1003.19 395.419 1003.19 395.419 1003.19 395.419C1003.09 395.507 1003 395.595 1002.91 395.683C1002.61 395.974 1002.3 396.265 1002 396.553C1000.9 397.592 999.801 398.588 998.778 399.41C997.797 400.176 996.656 400.724 995.435 401.013C994.215 401.303 992.945 401.327 991.713 401.086C989.314 400.363 989.978 397.476 990.772 395.482C991.046 394.792 991.337 394.208 991.521 393.859C991.639 393.636 991.713 393.508 991.713 393.508C991.622 393.606 991.53 393.702 991.436 393.797C991.018 394.22 990.575 394.618 990.108 394.989C989.457 395.506 988.761 395.969 988.027 396.373C986.27 397.223 984.451 397.946 982.586 398.536C978.052 400.212 974.687 396.631 976.501 393.866C980.172 388.28 995.078 377.178 997.535 376.304C1000.51 375.248 1003.6 377.161 1005.43 378.668C1005.54 378.755 1005.64 378.842 1005.74 378.926C1005.85 378.847 1005.96 378.773 1006.07 378.702C1007 378.126 1008.08 377.824 1009.18 377.837C1012.92 378.063 1015.01 379.143 1015.96 379.795C1016.09 379.884 1016.19 379.965 1016.28 380.035C1016.49 380.198 1016.58 380.301 1016.58 380.301C1016.66 380.194 1016.74 380.088 1016.83 379.985C1016.91 379.881 1017 379.779 1017.09 379.679ZM1016.47 379.175C1017.22 378.342 1018.12 377.655 1019.13 377.15C1020.38 376.523 1021.77 376.195 1023.18 376.192C1024.34 376.115 1025.49 376.391 1026.49 376.984C1027.21 377.414 1027.82 377.997 1028.29 378.686C1028.45 378.581 1028.64 378.466 1028.85 378.347C1029.68 377.877 1030.88 377.334 1032.32 377.047C1035.26 376.464 1039.13 376.972 1042.92 381.029M1016.47 379.175C1016.17 378.967 1015.78 378.722 1015.27 378.474C1014 377.851 1012.05 377.209 1009.23 377.038C1009.21 377.038 1009.2 377.037 1009.19 377.037C1007.99 377.023 1006.82 377.335 1005.8 377.933C1004.91 377.223 1003.76 376.431 1002.46 375.884C1000.91 375.235 999.093 374.902 997.267 375.55C996.873 375.691 996.307 376.001 995.658 376.398C994.991 376.807 994.179 377.344 993.272 377.974C991.455 379.237 989.233 380.891 986.974 382.692C984.717 384.493 982.415 386.447 980.442 388.306C978.481 390.155 976.804 391.948 975.832 393.427C974.669 395.2 975.209 397.222 976.637 398.469C978.061 399.712 980.344 400.211 982.845 399.293C984.741 398.692 986.589 397.957 988.376 397.093C988.388 397.087 988.401 397.081 988.413 397.074C988.829 396.845 989.233 396.598 989.625 396.333C989.592 396.443 989.561 396.554 989.531 396.665C989.284 397.588 989.128 398.651 989.348 399.604C989.584 400.625 990.247 401.48 991.483 401.852C991.508 401.859 991.533 401.866 991.559 401.871C992.902 402.134 994.288 402.107 995.62 401.792C996.951 401.476 998.198 400.878 999.271 400.04L999.279 400.034C1000.17 399.322 1001.1 398.486 1002.04 397.61C1002.07 397.777 1002.11 397.942 1002.16 398.104C1002.47 399.087 1003.13 399.986 1003.92 400.688C1004.71 401.392 1005.68 401.944 1006.67 402.191C1007.66 402.438 1008.74 402.395 1009.65 401.773C1010.71 401.04 1011.73 400.255 1012.72 399.424C1013.71 400.263 1014.03 401.063 1014.03 401.75C1014.04 402.582 1013.59 403.483 1012.77 404.353C1011.95 405.213 1010.84 405.962 1009.72 406.476C1008.58 406.999 1007.53 407.235 1006.83 407.178L1006.82 407.178C1001.29 406.767 995.737 406.767 990.206 407.178L990.203 407.178C987.059 407.425 984.063 408.173 982.155 410.057L982.15 410.062C981.003 411.218 980.266 412.974 980.677 414.646C981.109 416.399 982.707 417.719 985.522 418.149C990.764 418.95 997.434 420.077 1004.36 421.83C1008.43 422.855 1015.82 425.073 1022.22 427.04C1025.41 428.023 1028.35 428.941 1030.48 429.613C1031.55 429.949 1032.42 430.224 1033.03 430.415C1033.16 430.458 1033.29 430.497 1033.39 430.532C1033.52 430.573 1033.63 430.608 1033.72 430.635L1033.82 430.668L1035.64 432.11L1064.34 500.657L1015.38 510.817C1015.06 510.883 1014.81 511.137 1014.75 511.458L1003.61 573.398C1003.56 573.667 1003.65 573.942 1003.85 574.128C1004.05 574.313 1004.34 574.383 1004.6 574.313L1094.7 550.362C1094.76 550.347 1094.81 550.326 1094.87 550.3C1115.47 539.672 1125.42 512.718 1112.81 493.333C1112.81 493.332 1112.81 493.331 1112.81 493.33L1064.9 417.91L1051.67 391.389C1051.65 391.343 1051.62 391.299 1051.59 391.258L1050.95 391.746C1051.59 391.258 1051.59 391.258 1051.59 391.258L1051.59 391.257L1051.57 391.241L1051.54 391.193C1051.5 391.151 1051.46 391.089 1051.39 391.009C1051.27 390.849 1051.09 390.615 1050.85 390.319C1050.38 389.729 1049.72 388.893 1048.91 387.91C1047.3 385.946 1045.13 383.389 1042.92 381.029" fill="#333333"></path> <path fill-rule="evenodd" clip-rule="evenodd" d="M988.818 396.328L1005.82 378.328L1006.18 378.671L989.182 396.671L988.818 396.328Z" fill="#333333"></path> <path fill-rule="evenodd" clip-rule="evenodd" d="M1000.81 397.836L1016.81 379.336L1017.19 379.664L1001.19 398.164L1000.81 397.836Z" fill="#333333"></path> <path fill-rule="evenodd" clip-rule="evenodd" d="M1010.81 400.342L1028.31 378.842L1028.69 379.158L1011.19 400.658L1010.81 400.342Z" fill="#333333"></path> <path d="M1029.04 508.683L1014.93 511.359L994.917 587.618L1031.23 576.8L1029.04 508.683Z" fill="#CA5D4B"></path> <path d="M1038.27 388.81C1038.27 388.81 1038.27 389.263 1037.69 389.672C1037.35 389.937 1036.95 390.129 1036.54 390.234C1036.12 390.339 1035.68 390.356 1035.26 390.283C1034.83 390.21 1034.43 390.049 1034.07 389.81C1033.71 389.572 1033.4 389.261 1033.17 388.897C1032.83 388.342 1032.83 387.918 1032.92 387.903C1033.01 387.889 1033.21 388.181 1033.59 388.561C1034.08 389.056 1034.7 389.392 1035.38 389.526C1036.06 389.627 1036.77 389.52 1037.39 389.219C1037.89 388.985 1038.18 388.737 1038.27 388.81Z" fill="#333333"></path> <path d="M1040.02 395.519C1039.86 395.651 1038.77 394.554 1037.8 392.903C1037.1 391.974 1036.68 390.863 1036.59 389.702C1036.78 389.629 1037.51 390.944 1038.46 392.523C1039.13 393.438 1039.65 394.448 1040.02 395.519V395.519Z" fill="#333333"></path> <path d="M1043.25 421.654C1042.61 420.731 1042.14 419.701 1041.86 418.613C1041.03 416.031 1040.63 413.331 1040.67 410.618C1040.72 407.906 1041.21 405.22 1042.13 402.666C1042.43 401.583 1042.93 400.563 1043.59 399.655C1042.36 403.193 1041.64 406.89 1041.47 410.633C1041.53 414.373 1042.13 418.086 1043.25 421.654V421.654Z" fill="#333333"></path> <path d="M1082.6 522.934C1082.46 522.934 1082.31 521.385 1081.55 519.002C1081.1 517.614 1080.52 516.268 1079.83 514.982C1078.1 511.844 1075.71 509.124 1072.81 507.016C1071.63 506.157 1070.37 505.409 1069.05 504.78C1066.8 503.713 1065.27 503.318 1065.3 503.231C1065.67 503.216 1066.04 503.265 1066.39 503.377C1067.39 503.59 1068.37 503.893 1069.32 504.283C1070.7 504.865 1072.03 505.59 1073.26 506.446C1076.31 508.55 1078.79 511.371 1080.48 514.661C1081.17 515.997 1081.72 517.403 1082.11 518.856C1082.37 519.812 1082.55 520.791 1082.65 521.779C1082.69 522.164 1082.68 522.554 1082.6 522.934Z" fill="#333333"></path> <path d="M969.76 360.702C946.399 360.368 923.081 362.821 900.301 368.01C895.024 369.224 889.441 370.773 885.874 374.836C882.088 379.134 881.489 385.258 880.934 390.915C880.329 397.863 879.725 404.806 879.121 411.744C878.119 413.463 877.011 415.118 875.803 416.699C870.307 423.876 863.306 429.854 858.263 437.396C853.22 444.939 850.501 454.937 854.565 463.005C857.035 467.887 861.595 471.337 864.928 475.663C870.585 482.972 872.427 492.487 875.73 501.155C879.033 509.823 884.997 518.695 894.103 520.391C898.488 521.224 902.961 520.303 907.332 520.946C913.865 521.896 919.361 526.179 924.55 530.257C929.739 534.335 935.381 538.487 941.959 539.144C948.536 539.802 956.064 535.344 956.196 528.737C953.757 530.112 950.989 530.797 948.191 530.72C945.392 530.643 942.667 529.806 940.307 528.299C936.478 525.77 934.007 521.677 930.718 518.491C922.635 510.656 909.626 508.171 903.999 498.422C899.614 490.719 901.324 481.057 903.341 472.389C905.081 464.876 906.864 456.735 904.686 449.514C904.859 448.352 904.952 447.18 904.964 446.006C904.964 438.317 901.967 430.073 905.548 423.277C910.284 414.273 923.936 413.133 928.716 404.172C931.508 398.954 930.528 392.289 933.569 387.217C936.419 382.452 942.134 380.259 947.572 379.075C953.009 377.891 958.724 377.351 963.519 374.544C968.313 371.738 971.938 365.803 969.76 360.702Z" fill="#333333"></path> <path d="M987.476 517.526C987.421 517.658 987.348 517.781 987.257 517.891L986.541 518.9C985.558 520.163 984.43 521.307 983.179 522.305C981.169 523.865 978.911 525.076 976.499 525.886C973.31 526.994 969.917 527.388 966.56 527.041C962.458 526.643 958.564 525.047 955.363 522.452C951.884 519.777 948.785 516.225 944.854 513.404C942.883 511.935 940.586 510.967 938.159 510.583C935.598 510.373 933.027 510.841 930.704 511.942C928.232 513.109 925.639 514.001 922.972 514.602C920.11 515.015 917.191 514.502 914.641 513.141C912.146 511.827 909.791 510.265 907.61 508.478C905.428 506.839 903.367 505.047 901.442 503.113C899.538 501.239 898.045 498.989 897.057 496.507C896.175 494.071 896.002 491.435 896.56 488.906C897.094 486.561 897.833 484.267 898.767 482.051C899.614 479.902 900.345 477.782 900.988 475.707C902.164 471.878 903.067 467.97 903.693 464.013C904.597 458.248 904.915 452.405 904.643 446.576C904.555 444.515 904.423 442.907 904.306 441.825C904.306 441.313 904.306 440.919 904.204 440.597C904.181 440.457 904.181 440.314 904.204 440.173C904.255 440.304 904.285 440.442 904.292 440.583L904.467 441.81C904.628 442.892 904.818 444.485 904.95 446.561C905.335 452.416 905.1 458.296 904.248 464.101C903.651 468.11 902.772 472.071 901.617 475.955C900.974 478.031 900.243 480.18 899.41 482.358C898.496 484.513 897.767 486.743 897.232 489.023C896.702 491.428 896.875 493.934 897.729 496.244C898.688 498.628 900.132 500.788 901.968 502.587C903.871 504.49 905.908 506.253 908.063 507.864C910.203 509.617 912.515 511.149 914.962 512.439C917.364 513.759 920.126 514.271 922.841 513.901C925.451 513.304 927.99 512.427 930.412 511.284C932.855 510.153 935.55 509.679 938.232 509.91C940.773 510.302 943.181 511.305 945.248 512.834C949.253 515.757 952.323 519.324 955.743 521.969C958.836 524.522 962.614 526.103 966.603 526.515C972.417 527.152 978.258 525.587 982.974 522.13C984.653 520.78 986.164 519.234 987.476 517.526Z" fill="#333333"></path> <path d="M841.438 471.044C841.017 470.527 840.626 469.985 840.269 469.421C839.273 467.782 838.571 465.981 838.193 464.101C837.617 461.112 837.667 458.036 838.339 455.068C839.217 451.128 840.943 447.427 843.397 444.222C846.417 440.409 849.971 437.051 853.95 434.253C858.145 431.125 862.91 428.217 867.661 424.84C872.727 421.449 877.135 417.164 880.67 412.197C882.412 409.484 883.742 406.529 884.616 403.426C885.552 400.298 886.195 397.024 886.955 393.721C887.614 390.427 888.593 387.206 889.878 384.103C891.164 381.054 893.128 378.34 895.623 376.166C898.06 374.114 900.876 372.56 903.91 371.591C906.793 370.658 909.776 370.069 912.797 369.837C918.357 369.555 923.93 369.731 929.461 370.363C934.248 370.875 939.073 370.939 943.873 370.553C947.821 370.173 951.658 369.031 955.172 367.191C957.826 365.811 960.177 363.912 962.085 361.608C963.29 360.145 964.239 358.49 964.892 356.711C965.301 355.483 965.462 354.811 965.491 354.825C965.386 355.483 965.234 356.133 965.038 356.769C964.431 358.591 963.511 360.292 962.319 361.798C960.422 364.194 958.061 366.183 955.376 367.644C951.826 369.551 947.939 370.747 943.931 371.167C939.096 371.591 934.231 371.557 929.402 371.065C923.908 370.467 918.375 370.316 912.856 370.612C909.873 370.844 906.929 371.433 904.086 372.366C901.147 373.292 898.417 374.782 896.047 376.751C893.641 378.86 891.747 381.49 890.507 384.439C889.222 387.497 888.243 390.675 887.583 393.925C886.823 397.214 886.122 400.503 885.216 403.675C884.325 406.835 882.96 409.841 881.167 412.591C877.596 417.624 873.138 421.963 868.012 425.396C863.217 428.787 858.452 431.666 854.272 434.75C850.321 437.493 846.786 440.791 843.777 444.544C841.327 447.66 839.596 451.278 838.705 455.141C837.996 458.052 837.902 461.078 838.427 464.028C838.935 466.55 839.96 468.938 841.438 471.044V471.044Z" fill="#F3F3FF"></path> <path d="M845.722 478.719C844.091 477.429 842.588 475.985 841.234 474.407C839.566 472.602 838.243 470.506 837.331 468.224C836.758 466.771 836.527 465.205 836.659 463.649C836.84 461.898 837.525 460.237 838.632 458.869C841 455.945 844.918 454.396 849.025 453.534C851.086 453.11 853.249 452.774 855.398 452.233C857.617 451.767 859.729 450.89 861.625 449.646C863.538 448.24 865.09 446.402 866.156 444.281C867.268 442.032 868.206 439.701 868.962 437.309C869.741 434.799 870.718 432.355 871.886 430.001C873.137 427.524 875.03 425.429 877.367 423.935C879.742 422.579 882.31 421.593 884.982 421.011C887.57 420.339 890.128 419.798 892.539 418.98C897.18 417.361 901.224 414.381 904.145 410.429C906.849 406.852 909.278 403.075 911.41 399.13C913.288 395.691 915.485 392.437 917.973 389.41C920.048 386.898 922.596 384.818 925.471 383.285C927.645 382.13 930.023 381.41 932.472 381.166C934.022 381.018 935.586 381.147 937.091 381.546C937.593 381.679 938.082 381.855 938.553 382.072C938.553 382.072 938.012 381.926 936.989 381.692C935.496 381.372 933.961 381.293 932.443 381.458C930.05 381.752 927.734 382.496 925.617 383.651C922.811 385.193 920.329 387.262 918.309 389.746C915.877 392.781 913.725 396.029 911.877 399.451C909.774 403.425 907.37 407.232 904.686 410.838C903.182 412.778 901.45 414.53 899.526 416.056C897.515 417.604 895.257 418.8 892.846 419.593C890.391 420.441 887.803 420.982 885.245 421.654C882.644 422.243 880.15 423.229 877.849 424.578C875.61 426.02 873.802 428.04 872.617 430.424C871.452 432.745 870.474 435.154 869.693 437.631C868.904 440.057 867.927 442.417 866.77 444.691C865.637 446.905 864.006 448.826 862.005 450.303C860.026 451.576 857.832 452.478 855.529 452.964C853.337 453.49 851.144 453.811 849.127 454.235C845.078 455.054 841.263 456.559 839.027 459.278C837.966 460.562 837.301 462.126 837.112 463.78C836.97 465.267 837.17 466.767 837.697 468.165C838.574 470.412 839.835 472.489 841.424 474.304C842.71 475.766 843.807 476.921 844.552 477.666L845.415 478.499C845.634 478.602 845.736 478.704 845.722 478.719Z" fill="#F3F3FF"></path> <path d="M1036.82 384.293C1036.58 384.715 1036.28 385.099 1035.93 385.434C1035.33 386.135 1034.47 387.129 1033.33 388.357L1029.4 392.61L1027.06 395.095C1026.25 396.03 1025.36 396.891 1024.4 397.668C1023.37 398.485 1022.13 398.992 1020.83 399.13C1020.2 399.196 1019.56 399.096 1018.98 398.839C1018.4 398.583 1017.89 398.179 1017.51 397.668C1017.16 397.173 1016.97 396.58 1016.97 395.972C1017 395.418 1017.18 394.88 1017.47 394.408C1018.01 393.531 1018.56 392.859 1019.05 392.187C1020.01 390.856 1020.82 389.789 1021.39 389.059C1021.65 388.654 1021.97 388.29 1022.34 387.977C1022.15 388.423 1021.92 388.845 1021.63 389.234C1021.14 390.009 1020.41 391.12 1019.49 392.494C1019.03 393.181 1018.48 393.955 1018.02 394.715C1017.76 395.086 1017.61 395.531 1017.61 395.987C1017.61 396.443 1017.76 396.888 1018.02 397.259C1018.34 397.665 1018.75 397.981 1019.23 398.176C1019.7 398.371 1020.22 398.438 1020.73 398.369C1021.88 398.246 1022.97 397.8 1023.89 397.083C1024.84 396.36 1025.73 395.547 1026.53 394.657L1028.91 392.201L1032.96 388.05C1034.12 386.881 1035.07 385.945 1035.74 385.302C1036.05 384.917 1036.42 384.578 1036.82 384.293Z" fill="#333333"></path> <path fill-rule="evenodd" clip-rule="evenodd" d="M1035.3 385.934C1034.7 386.524 1033.94 387.273 1033.07 388.155C1033.07 388.155 1033.07 388.155 1033.07 388.155L1029.02 392.306L1026.64 394.76C1025.83 395.656 1024.94 396.474 1023.98 397.202C1023.04 397.936 1021.92 398.392 1020.75 398.519C1020.21 398.59 1019.67 398.52 1019.17 398.315C1018.67 398.11 1018.23 397.778 1017.9 397.35L1017.9 397.346C1017.62 396.95 1017.46 396.475 1017.46 395.987C1017.46 395.502 1017.62 395.028 1017.9 394.633C1018.21 394.112 1018.57 393.58 1018.91 393.08C1019.07 392.849 1019.22 392.625 1019.36 392.411L1019.36 392.41C1020.28 391.037 1021.01 389.927 1021.51 389.153L1021.51 389.146C1021.58 389.053 1021.64 388.959 1021.71 388.863C1021.64 388.953 1021.57 389.046 1021.51 389.141L1021.5 389.151C1020.94 389.88 1020.13 390.946 1019.17 392.275C1019.02 392.483 1018.86 392.689 1018.71 392.9C1018.35 393.379 1017.97 393.882 1017.6 394.487C1017.32 394.937 1017.15 395.449 1017.12 395.977C1017.12 396.552 1017.3 397.112 1017.63 397.58C1018 398.07 1018.48 398.457 1019.04 398.702C1019.6 398.948 1020.21 399.044 1020.81 398.981C1022.09 398.846 1023.3 398.35 1024.3 397.551C1025.26 396.78 1026.14 395.925 1026.94 394.997L1026.95 394.993L1029.29 392.509L1029.29 392.508L1033.22 388.255C1034.06 387.345 1034.76 386.563 1035.3 385.934ZM1035.63 385.2C1035.95 384.808 1036.32 384.462 1036.73 384.171L1036.95 384.368C1036.71 384.8 1036.4 385.194 1036.04 385.537C1035.44 386.239 1034.58 387.233 1033.44 388.459C1033.44 388.459 1033.44 388.459 1033.44 388.459L1029.51 392.712L1029.5 392.713L1027.17 395.196C1026.35 396.137 1025.46 397.003 1024.49 397.785L1024.49 397.785C1023.44 398.62 1022.18 399.138 1020.85 399.279C1020.19 399.348 1019.52 399.244 1018.92 398.977C1018.31 398.71 1017.79 398.29 1017.39 397.757L1017.39 397.755C1017.02 397.234 1016.82 396.611 1016.82 395.972L1016.82 395.964C1016.86 395.384 1017.03 394.823 1017.34 394.33C1017.72 393.712 1018.11 393.191 1018.48 392.707C1018.63 392.499 1018.78 392.298 1018.92 392.099C1019.89 390.771 1020.69 389.704 1021.26 388.972C1021.53 388.558 1021.86 388.184 1022.24 387.863L1022.47 388.034C1022.29 388.489 1022.05 388.921 1021.76 389.319C1021.26 390.094 1020.53 391.205 1019.61 392.577C1019.46 392.798 1019.31 393.025 1019.15 393.258C1018.81 393.757 1018.46 394.276 1018.15 394.792L1018.15 394.803C1017.9 395.148 1017.76 395.562 1017.76 395.987C1017.76 396.411 1017.9 396.825 1018.14 397.169C1018.44 397.554 1018.83 397.853 1019.28 398.038C1019.73 398.223 1020.23 398.286 1020.71 398.221L1020.71 398.221C1021.84 398.1 1022.9 397.665 1023.79 396.966L1023.79 396.964C1024.74 396.246 1025.62 395.44 1026.42 394.557L1026.42 394.553L1028.81 392.097L1032.85 387.945C1034.01 386.779 1034.96 385.845 1035.63 385.2Z" fill="#333333"></path> <path d="M1189.87 834.849C1191.13 832.117 1193.03 829.731 1195.41 827.898C1197.79 826.064 1200.59 824.838 1203.55 824.324C1206.51 823.811 1209.55 824.025 1212.42 824.95C1215.28 825.874 1217.87 827.481 1219.97 829.63C1216.89 834.602 1212.1 838.28 1206.51 839.979C1203.55 841.02 1200.34 841.084 1197.34 840.16C1194.35 839.236 1191.73 837.374 1189.87 834.849Z" fill="#F3F3FF"></path> <path d="M1179.5 837.245C1180.84 836.644 1182.25 836.203 1183.69 835.93C1186.34 835.287 1190.02 834.571 1194.1 833.898C1198.18 833.226 1201.89 832.714 1204.59 832.437C1206.04 832.196 1207.51 832.083 1208.98 832.1C1207.57 832.513 1206.14 832.806 1204.68 832.977L1194.23 834.688C1190.17 835.36 1186.48 836.003 1183.82 836.5C1182.4 836.83 1180.95 837.079 1179.5 837.245V837.245Z" fill="#333333"></path> <path d="M667.425 742.31C670.541 744.876 672.971 748.178 674.495 751.917C676.018 755.656 676.588 759.716 676.154 763.73C675.719 767.744 674.292 771.587 672.003 774.913C669.714 778.239 666.634 780.944 663.04 782.784C657.675 769.029 655.614 754.222 667.425 742.31Z" fill="#F3F3FF"></path> <path d="M687.758 752.863C688.045 758.077 689.625 763.137 692.354 767.589C695.082 772.041 698.875 775.744 703.39 778.367C707.906 780.989 713.002 782.448 718.221 782.611C723.44 782.775 728.618 781.639 733.289 779.305C723.057 763.226 709.215 749.677 687.758 752.834" fill="#F3F3FF"></path> <path d="M641.174 702.025C641.432 702.24 641.662 702.486 641.861 702.756L643.688 704.934C645.237 706.849 647.503 709.612 650.368 712.959C656.068 719.683 664.122 728.833 673.609 738.377C678.359 743.143 683.022 747.542 687.348 751.43C691.675 755.318 695.768 758.636 699.276 761.297C702.031 763.408 704.906 765.361 707.885 767.143C710.005 768.4 711.262 768.927 711.232 769C710.906 768.925 710.592 768.807 710.297 768.649C709.419 768.29 708.564 767.875 707.739 767.406C704.691 765.71 701.761 763.81 698.969 761.721C695.402 759.09 691.31 755.772 686.91 751.942C682.51 748.112 677.847 743.669 673.082 738.904C663.581 729.344 655.542 720.121 649.973 713.295C647.152 709.889 644.96 707.068 643.469 705.11L641.744 702.829C641.529 702.58 641.338 702.311 641.174 702.025Z" fill="#333333"></path> <path d="M666.3 763.095C666.168 763.095 666.651 761.049 667.075 757.731C668.159 749.053 667.239 740.242 664.385 731.976C663.289 728.819 662.397 726.933 662.514 726.875C662.818 727.258 663.069 727.681 663.26 728.132C663.87 729.32 664.416 730.54 664.897 731.786C666.473 735.912 667.505 740.226 667.966 744.619C668.421 749.001 668.298 753.424 667.601 757.774C667.384 759.12 667.091 760.452 666.724 761.765C666.635 762.223 666.492 762.67 666.3 763.095V763.095Z" fill="#333333"></path> <path d="M1311.33 467.294C1309.52 464.895 1308.32 462.091 1307.83 459.125C1307.35 456.159 1307.59 453.12 1308.54 450.27C1309.5 447.419 1311.13 444.844 1313.3 442.765C1315.47 440.686 1318.11 439.167 1321 438.338C1323.92 443.398 1324.89 449.349 1323.74 455.074C1323.25 458.173 1321.78 461.034 1319.55 463.234C1317.31 465.435 1314.43 466.858 1311.33 467.294Z" fill="#F3F3FF"></path> <path d="M1308.55 477.57C1308.65 476.104 1308.93 474.656 1309.38 473.258C1310.07 470.627 1311.18 467.046 1312.52 463.128C1313.87 459.211 1315.18 455.703 1316.18 453.174C1316.65 451.782 1317.24 450.436 1317.96 449.155C1317.66 450.591 1317.23 451.999 1316.69 453.364C1315.73 456.156 1314.54 459.577 1313.24 463.377C1311.94 467.177 1310.71 470.832 1309.89 473.404C1309.52 474.815 1309.07 476.205 1308.55 477.57V477.57Z" fill="#333333"></path> <path d="M1247.01 576.043C1245.5 570.43 1245.38 564.534 1246.65 558.862C1247.93 553.191 1250.57 547.916 1254.34 543.493C1258.11 539.069 1262.9 535.63 1268.3 533.473C1273.7 531.316 1279.54 530.505 1285.32 531.111C1287.35 542.161 1283.86 553.504 1278.09 563.107C1271.2 574.435 1257.52 579.186 1247.01 576.043Z" fill="#F3F3FF"></path> <path d="M1203.76 619.309C1203.94 619.026 1204.15 618.761 1204.39 618.52L1206.27 616.371C1207.96 614.529 1210.41 611.898 1213.47 608.683C1219.61 602.251 1228.17 593.466 1237.7 583.834C1247.23 574.201 1255.9 565.504 1262.21 559.263L1269.73 551.882L1271.8 549.908C1272.27 549.47 1272.53 549.236 1272.56 549.265C1272.37 549.538 1272.15 549.793 1271.9 550.025L1269.93 552.101L1262.62 559.628L1238.24 584.36L1213.86 609.063L1206.55 616.576L1204.56 618.622C1204.32 618.881 1204.05 619.112 1203.76 619.309V619.309Z" fill="#333333"></path> <g opacity="0.3"> <path opacity="0.3" d="M1247.01 576.043C1245.5 570.43 1245.38 564.534 1246.65 558.862C1247.93 553.191 1250.57 547.916 1254.34 543.493C1258.11 539.069 1262.9 535.63 1268.3 533.473C1273.7 531.316 1279.54 530.505 1285.32 531.111C1287.35 542.161 1283.86 553.504 1278.09 563.107C1271.2 574.435 1257.52 579.186 1247.01 576.043Z" fill="#333333"></path> </g> <path d="M1226.97 580.385C1223.79 578.763 1221.05 576.387 1218.99 573.464C1216.94 570.542 1215.63 567.161 1215.18 563.616C1214.72 560.071 1215.15 556.47 1216.41 553.125C1217.66 549.781 1219.72 546.795 1222.4 544.427C1228.24 548.081 1231.99 554.323 1233.93 560.93C1236.24 568.735 1232.76 577.008 1226.97 580.385Z" fill="#F3F3FF"></path> <g opacity="0.3"> <path opacity="0.3" d="M1226.97 580.385C1223.79 578.763 1221.05 576.387 1218.99 573.464C1216.94 570.542 1215.63 567.161 1215.18 563.616C1214.72 560.071 1215.15 556.47 1216.41 553.125C1217.66 549.781 1219.72 546.795 1222.4 544.427C1228.24 548.081 1231.99 554.323 1233.93 560.93C1236.24 568.735 1232.76 577.008 1226.97 580.385Z" fill="#333333"></path> </g> <path d="M1229.25 592.837C1229.05 592.409 1228.9 591.957 1228.81 591.493C1228.56 590.63 1228.29 589.359 1227.98 587.765C1227.37 584.608 1226.72 580.194 1226.14 575.326C1225.55 570.459 1225.14 566.015 1224.9 562.8C1224.69 561.074 1224.62 559.333 1224.69 557.596C1225.06 559.297 1225.31 561.021 1225.44 562.756C1225.83 566.147 1226.34 570.459 1226.9 575.239C1227.45 580.018 1228.04 584.506 1228.51 587.678C1228.97 590.849 1229.37 592.808 1229.25 592.837Z" fill="#333333"></path> <path d="M953.214 749.793C955.448 744.493 958.968 739.834 963.455 736.236C967.943 732.639 973.257 730.217 978.916 729.19C984.575 728.162 990.401 728.562 995.866 730.353C1001.33 732.143 1006.27 735.268 1010.22 739.445C993.644 752.293 974.306 761.063 953.331 749.793" fill="#F3F3FF"></path> <g opacity="0.3"> <path opacity="0.3" d="M953.214 749.793C955.448 744.493 958.968 739.834 963.455 736.236C967.943 732.639 973.257 730.217 978.916 729.19C984.575 728.162 990.401 728.562 995.866 730.353C1001.33 732.143 1006.27 735.268 1010.22 739.445C993.644 752.293 974.306 761.063 953.331 749.793" fill="#333333"></path> </g> <path d="M943.902 754.938C944.297 754.544 944.739 754.2 945.218 753.915C946.095 753.287 947.396 752.453 949.062 751.489C957.749 746.467 967.377 743.287 977.346 742.149C979.246 741.944 980.795 741.842 981.862 741.827C982.415 741.751 982.976 741.751 983.529 741.827C983.529 741.944 981.175 742.09 977.404 742.646C972.498 743.364 967.662 744.498 962.948 746.037C958.248 747.591 953.69 749.547 949.325 751.883C945.905 753.754 943.975 755.041 943.902 754.938Z" fill="#333333"></path> <path d="M567.957 559.336C571.971 557.463 576.387 556.618 580.809 556.876C585.23 557.135 589.518 558.488 593.287 560.814C597.056 563.141 600.187 566.368 602.4 570.205C604.612 574.042 605.836 578.368 605.961 582.796C589.809 581.597 574.184 576.642 567.957 559.336Z" fill="#F3F3FF"></path> <g opacity="0.3"> <path opacity="0.3" d="M567.957 559.336C571.971 557.463 576.387 556.618 580.809 556.876C585.23 557.135 589.518 558.488 593.287 560.814C597.056 563.141 600.187 566.368 602.4 570.205C604.612 574.042 605.836 578.368 605.961 582.796C589.809 581.597 574.184 576.642 567.957 559.336Z" fill="#333333"></path> </g> <path d="M559.933 557.451C560.359 557.38 560.793 557.38 561.219 557.451C562.383 557.575 563.539 557.761 564.683 558.006C568.469 558.796 572.162 559.977 575.704 561.529C579.243 563.096 582.613 565.021 585.761 567.273C586.959 568.15 587.895 568.895 588.509 569.451C588.854 569.711 589.164 570.016 589.429 570.357C589.342 570.459 587.968 569.334 585.454 567.726C579.064 563.51 571.999 560.42 564.566 558.591C561.716 557.874 559.918 557.567 559.933 557.451Z" fill="#333333"></path> <path d="M1091.72 731.888C1091.25 727.954 1091.76 723.964 1093.2 720.276C1094.65 716.588 1097 713.318 1100.02 710.76C1103.05 708.203 1106.67 706.439 1110.55 705.626C1114.42 704.813 1118.44 704.977 1122.24 706.104C1116.73 719.508 1108.17 731.42 1091.72 731.888Z" fill="#F3F3FF"></path> <path d="M1087.88 738.188C1088.32 736.821 1088.94 735.515 1089.71 734.3C1093.15 728.27 1097.84 723.039 1103.46 718.952C1104.59 718.059 1105.82 717.308 1107.13 716.716C1106.06 717.662 1104.93 718.55 1103.77 719.376C1098.4 723.633 1093.79 728.768 1090.14 734.563C1089.46 735.814 1088.7 737.024 1087.88 738.188V738.188Z" fill="#333333"></path> <path d="M1206.74 655.953C1205.54 652.179 1205.29 648.165 1206.02 644.27C1206.75 640.376 1208.43 636.724 1210.92 633.644C1213.42 630.563 1216.64 628.15 1220.29 626.623C1223.95 625.095 1227.93 624.501 1231.87 624.893C1228.95 639.1 1222.81 652.401 1206.74 655.953Z" fill="#F3F3FF"></path> <g opacity="0.3"> <path opacity="0.3" d="M1206.74 655.953C1205.54 652.179 1205.29 648.165 1206.02 644.27C1206.75 640.376 1208.43 636.724 1210.92 633.644C1213.42 630.563 1216.64 628.15 1220.29 626.623C1223.95 625.095 1227.93 624.501 1231.87 624.893C1228.95 639.1 1222.81 652.401 1206.74 655.953Z" fill="#333333"></path> </g> <path d="M1204.16 662.867C1204.33 661.444 1204.69 660.049 1205.22 658.716C1206.34 655.434 1207.81 652.283 1209.61 649.318C1211.39 646.345 1213.48 643.576 1215.86 641.059C1216.8 639.958 1217.86 638.976 1219.04 638.136C1218.17 639.266 1217.24 640.349 1216.26 641.381C1214.04 643.983 1212.03 646.759 1210.25 649.683C1208.51 652.62 1207 655.689 1205.73 658.862C1205.29 660.227 1204.76 661.564 1204.16 662.867V662.867Z" fill="#333333"></path> <path d="M339.715 551.428C340.574 547.56 342.382 543.966 344.976 540.97C347.569 537.973 350.867 535.669 354.573 534.264C358.278 532.86 362.275 532.398 366.203 532.922C370.131 533.446 373.867 534.938 377.075 537.265C367.428 548.067 355.384 556.457 339.715 551.428Z" fill="#F3F3FF"></path> <path d="M334 556.091C334.879 554.957 335.89 553.932 337.011 553.036C339.632 550.792 342.484 548.832 345.518 547.19C348.555 545.516 351.765 544.178 355.092 543.199C356.446 542.722 357.856 542.422 359.287 542.308C357.97 542.868 356.623 543.356 355.253 543.769C348.776 545.992 342.725 549.304 337.362 553.563C336.292 554.471 335.169 555.315 334 556.091V556.091Z" fill="#333333"></path> <path d="M1007.84 360.679L1019.53 339.499C1012.03 327.575 1009.25 313.276 1011.75 299.411C1014.26 285.547 1021.85 273.119 1033.05 264.572C1044.25 256.025 1058.25 251.976 1072.28 253.221C1086.31 254.466 1099.37 260.915 1108.89 271.301C1118.41 281.686 1123.71 295.257 1123.73 309.346C1123.75 323.435 1118.5 337.022 1109.01 347.438C1099.53 357.854 1086.49 364.345 1072.46 365.634C1058.43 366.924 1044.42 362.92 1033.2 354.408V354.408L1007.84 360.679Z" fill="white"></path> <path fill-rule="evenodd" clip-rule="evenodd" d="M1019.53 339.499L1007.84 360.679L1033.2 354.408C1044.42 362.92 1058.43 366.924 1072.46 365.634C1086.49 364.345 1099.53 357.854 1109.01 347.438C1118.5 337.022 1123.75 323.435 1123.73 309.346C1123.71 295.257 1118.41 281.686 1108.89 271.301C1099.37 260.915 1086.31 254.466 1072.28 253.221C1058.25 251.976 1044.25 256.025 1033.05 264.572C1021.85 273.119 1014.26 285.547 1011.75 299.411C1009.25 313.276 1012.03 327.575 1019.53 339.499ZM1009.77 359.199L1032.96 353.463L1033.2 354.408L1033.79 353.633C1044.82 361.997 1058.58 365.933 1072.37 364.665C1086.16 363.398 1098.97 357.019 1108.3 346.783C1117.62 336.547 1122.78 323.193 1122.75 309.348C1122.73 295.502 1117.53 282.165 1108.18 271.958C1098.82 261.752 1085.99 255.414 1072.19 254.19C1058.4 252.967 1044.65 256.946 1033.64 265.346C1022.64 273.746 1015.17 285.959 1012.71 299.584C1010.25 313.21 1012.98 327.263 1020.35 338.98L1020.66 339.466L1009.77 359.199Z" fill="#333333"></path> <path d="M1051.67 299.873L1058.98 299.8C1058.97 298.965 1059.12 298.137 1059.43 297.363C1059.75 296.59 1060.21 295.888 1060.8 295.298C1061.4 294.709 1062.1 294.245 1062.87 293.933C1063.65 293.622 1064.48 293.469 1065.31 293.485C1066.54 293.417 1067.77 293.741 1068.8 294.411C1069.84 295.081 1070.64 296.061 1071.08 297.212C1071.48 298.167 1071.65 299.203 1071.57 300.234C1071.49 301.265 1071.17 302.263 1070.63 303.147C1069.4 305.208 1066.7 307.093 1061.74 306.275L1061.9 322.807H1069.21L1069.08 313.028C1072.05 312.124 1074.64 310.272 1076.45 307.756C1078.26 305.24 1079.2 302.199 1079.12 299.098C1079.02 288.384 1069.39 285.943 1065.27 286.031C1062.12 286.104 1051.41 286.966 1051.67 299.873Z" fill="#CA5D4B"></path> <path fill-rule="evenodd" clip-rule="evenodd" d="M1068.59 312.669L1068.94 312.562C1071.8 311.69 1074.3 309.901 1076.06 307.472C1077.81 305.042 1078.71 302.105 1078.64 299.111L1078.64 299.107L1078.64 299.103C1078.59 293.92 1076.25 290.776 1073.43 288.92C1070.6 287.046 1067.26 286.475 1065.28 286.517C1063.73 286.553 1060.37 286.786 1057.44 288.555C1054.64 290.254 1052.16 293.406 1052.15 299.381L1058.5 299.318C1058.55 298.585 1058.71 297.863 1058.98 297.181C1059.32 296.347 1059.82 295.59 1060.46 294.954C1061.1 294.319 1061.86 293.818 1062.69 293.482C1063.52 293.148 1064.41 292.984 1065.3 292.998C1066.63 292.929 1067.95 293.28 1069.07 294.002C1070.19 294.726 1071.05 295.787 1071.54 297.031C1071.96 298.055 1072.14 299.165 1072.05 300.271C1071.97 301.378 1071.62 302.449 1071.05 303.398C1070.39 304.508 1069.33 305.567 1067.78 306.237C1066.35 306.857 1064.52 307.133 1062.24 306.839L1062.39 322.32H1068.72L1068.59 312.669ZM1069.21 322.807H1061.9L1061.74 306.275C1061.91 306.302 1062.07 306.326 1062.23 306.348C1066.88 306.968 1069.44 305.139 1070.63 303.147C1071.17 302.263 1071.49 301.265 1071.57 300.234C1071.65 299.203 1071.48 298.167 1071.08 297.212C1070.64 296.061 1069.84 295.081 1068.8 294.411C1067.77 293.741 1066.54 293.417 1065.31 293.485C1064.48 293.469 1063.65 293.622 1062.87 293.933C1062.1 294.245 1061.4 294.709 1060.8 295.298C1060.21 295.888 1059.75 296.59 1059.43 297.363C1059.13 298.111 1058.98 298.911 1058.98 299.717C1058.98 299.745 1058.98 299.772 1058.98 299.8L1051.67 299.873C1051.67 299.712 1051.67 299.554 1051.67 299.397C1051.67 299.393 1051.67 299.39 1051.67 299.386C1051.68 286.944 1062.16 286.103 1065.27 286.031C1069.39 285.943 1079.02 288.384 1079.12 299.098C1079.2 302.199 1078.26 305.24 1076.45 307.756C1074.64 310.272 1072.05 312.124 1069.08 313.028L1069.21 322.807Z" fill="#CA5D4B"></path> <path d="M1069.3 326.149L1061.95 326.22L1062.02 333.089L1069.37 333.019L1069.3 326.149Z" fill="#CA5D4B"></path> <path fill-rule="evenodd" clip-rule="evenodd" d="M1068.82 326.64L1062.44 326.702L1062.5 332.598L1068.88 332.537L1068.82 326.64ZM1069.3 326.149L1069.37 333.019L1062.02 333.089L1061.95 326.22L1069.3 326.149Z" fill="#CA5D4B"></path> <path d="M1029.32 412.177C1029.42 412.274 1029.58 412.274 1029.68 412.177C1029.77 412.079 1029.77 411.921 1029.68 411.823L1029.32 412.177ZM1029.68 411.823C1028.62 410.769 1023.05 405.744 1007.98 407.251L1008.02 407.748C1022.95 406.256 1028.38 411.231 1029.32 412.177L1029.68 411.823Z" fill="#333333"></path> </svg> 